<svg width="1024" height="753" viewBox="0 0 1024 753" fill="none" xmlns="http://www.w3.org/2000/svg">
<g opacity="0.2" filter="url(#filter0_f_175_1868)">
<ellipse cx="512.5" cy="62.5102" rx="670.5" ry="378.51" fill="#D80027"/>
</g>
<path d="M33.0349 317.734C34.5302 317.734 35.6622 318.416 36.4308 319.779C37.2134 321.128 37.6047 323.091 37.6047 325.668C37.6047 328.245 37.2134 330.215 36.4308 331.579C35.6622 332.942 34.5302 333.624 33.0349 333.624C31.5536 333.624 30.4216 332.942 29.639 331.579C28.8564 330.215 28.4651 328.245 28.4651 325.668C28.4651 323.106 28.8564 321.143 29.639 319.779C30.4216 318.416 31.5536 317.734 33.0349 317.734ZM29.9534 325.668C29.9534 327.496 30.1072 328.927 30.4146 329.961L35.0683 320.004C34.5791 319.3 33.9013 318.948 33.0349 318.948C32.0706 318.948 31.316 319.502 30.771 320.611C30.2259 321.705 29.9534 323.39 29.9534 325.668ZM33.0349 332.388C34.0131 332.388 34.7748 331.841 35.3198 330.747C35.8648 329.638 36.1373 327.945 36.1373 325.668C36.1373 323.735 35.9627 322.237 35.6133 321.173L30.9596 331.219C31.4627 331.998 32.1545 332.388 33.0349 332.388Z" fill="url(#paint0_linear_175_1868)" fill-opacity="0.6"/>
<path d="M34.2926 357.894H37.3741V359.085H29.3874V357.894H32.9511V345.263L29.5551 347.443L28.9682 346.432L33.1607 343.645H34.2926V357.894Z" fill="url(#paint1_linear_175_1868)" fill-opacity="0.6"/>
<path d="M33.0349 369.106C34.5302 369.106 35.6622 369.787 36.4308 371.151C37.2134 372.499 37.6047 374.462 37.6047 377.039C37.6047 379.617 37.2134 381.587 36.4308 382.95C35.6622 384.314 34.5302 384.996 33.0349 384.996C31.5536 384.996 30.4216 384.314 29.639 382.95C28.8564 381.587 28.4651 379.617 28.4651 377.039C28.4651 374.477 28.8564 372.514 29.639 371.151C30.4216 369.787 31.5536 369.106 33.0349 369.106ZM29.9534 377.039C29.9534 378.867 30.1072 380.298 30.4146 381.332L35.0683 371.376C34.5791 370.671 33.9013 370.319 33.0349 370.319C32.0706 370.319 31.316 370.874 30.771 371.983C30.2259 373.076 29.9534 374.762 29.9534 377.039ZM33.0349 383.759C34.0131 383.759 34.7748 383.213 35.3198 382.119C35.8648 381.01 36.1373 379.317 36.1373 377.039C36.1373 375.107 35.9627 373.608 35.6133 372.544L30.9596 382.591C31.4627 383.37 32.1545 383.759 33.0349 383.759Z" fill="url(#paint2_linear_175_1868)" fill-opacity="0.6"/>
<path d="M34.2926 409.265H37.3741V410.457H29.3874V409.265H32.9511V396.634L29.5551 398.815L28.9682 397.803L33.1607 395.016H34.2926V409.265Z" fill="url(#paint3_linear_175_1868)" fill-opacity="0.6"/>
<path d="M34.2926 434.951H37.3741V436.142H29.3874V434.951H32.9511V422.32L29.5551 424.5L28.9682 423.489L33.1607 420.702H34.2926V434.951Z" fill="url(#paint4_linear_175_1868)" fill-opacity="0.6"/>
<path d="M33.0349 446.163C34.5302 446.163 35.6622 446.845 36.4308 448.208C37.2134 449.557 37.6047 451.52 37.6047 454.097C37.6047 456.674 37.2134 458.644 36.4308 460.008C35.6622 461.371 34.5302 462.053 33.0349 462.053C31.5536 462.053 30.4216 461.371 29.639 460.008C28.8564 458.644 28.4651 456.674 28.4651 454.097C28.4651 451.535 28.8564 449.572 29.639 448.208C30.4216 446.845 31.5536 446.163 33.0349 446.163ZM29.9534 454.097C29.9534 455.925 30.1072 457.356 30.4146 458.389L35.0683 448.433C34.5791 447.729 33.9013 447.377 33.0349 447.377C32.0706 447.377 31.316 447.931 30.771 449.04C30.2259 450.134 29.9534 451.819 29.9534 454.097ZM33.0349 460.817C34.0131 460.817 34.7748 460.27 35.3198 459.176C35.8648 458.067 36.1373 456.374 36.1373 454.097C36.1373 452.164 35.9627 450.666 35.6133 449.602L30.9596 459.648C31.4627 460.427 32.1545 460.817 33.0349 460.817Z" fill="url(#paint5_linear_175_1868)" fill-opacity="0.6"/>
<path d="M34.2926 486.323H37.3741V487.514H29.3874V486.323H32.9511V473.692L29.5551 475.872L28.9682 474.86L33.1607 472.074H34.2926V486.323Z" fill="url(#paint6_linear_175_1868)" fill-opacity="0.6"/>
<path d="M33.0349 497.535C34.5302 497.535 35.6622 498.216 36.4308 499.58C37.2134 500.928 37.6047 502.891 37.6047 505.468C37.6047 508.045 37.2134 510.016 36.4308 511.379C35.6622 512.743 34.5302 513.424 33.0349 513.424C31.5536 513.424 30.4216 512.743 29.639 511.379C28.8564 510.016 28.4651 508.045 28.4651 505.468C28.4651 502.906 28.8564 500.943 29.639 499.58C30.4216 498.216 31.5536 497.535 33.0349 497.535ZM29.9534 505.468C29.9534 507.296 30.1072 508.727 30.4146 509.761L35.0683 499.805C34.5791 499.1 33.9013 498.748 33.0349 498.748C32.0706 498.748 31.316 499.303 30.771 500.411C30.2259 501.505 29.9534 503.191 29.9534 505.468ZM33.0349 512.188C34.0131 512.188 34.7748 511.641 35.3198 510.548C35.8648 509.439 36.1373 507.746 36.1373 505.468C36.1373 503.535 35.9627 502.037 35.6133 500.973L30.9596 511.02C31.4627 511.799 32.1545 512.188 33.0349 512.188Z" fill="url(#paint7_linear_175_1868)" fill-opacity="0.6"/>
<path d="M33.0349 523.22C34.5302 523.22 35.6622 523.902 36.4308 525.266C37.2134 526.614 37.6047 528.577 37.6047 531.154C37.6047 533.731 37.2134 535.701 36.4308 537.065C35.6622 538.428 34.5302 539.11 33.0349 539.11C31.5536 539.11 30.4216 538.428 29.639 537.065C28.8564 535.701 28.4651 533.731 28.4651 531.154C28.4651 528.592 28.8564 526.629 29.639 525.266C30.4216 523.902 31.5536 523.22 33.0349 523.22ZM29.9534 531.154C29.9534 532.982 30.1072 534.413 30.4146 535.447L35.0683 525.49C34.5791 524.786 33.9013 524.434 33.0349 524.434C32.0706 524.434 31.316 524.988 30.771 526.097C30.2259 527.191 29.9534 528.877 29.9534 531.154ZM33.0349 537.874C34.0131 537.874 34.7748 537.327 35.3198 536.233C35.8648 535.125 36.1373 533.431 36.1373 531.154C36.1373 529.221 35.9627 527.723 35.6133 526.659L30.9596 536.705C31.4627 537.484 32.1545 537.874 33.0349 537.874Z" fill="url(#paint8_linear_175_1868)" fill-opacity="0.6"/>
<path d="M34.2926 563.38H37.3741V564.571H29.3874V563.38H32.9511V550.749L29.5551 552.929L28.9682 551.918L33.1607 549.131H34.2926V563.38Z" fill="url(#paint9_linear_175_1868)" fill-opacity="0.6"/>
<path d="M33.0349 574.592C34.5302 574.592 35.6622 575.274 36.4308 576.637C37.2134 577.986 37.6047 579.948 37.6047 582.526C37.6047 585.103 37.2134 587.073 36.4308 588.436C35.6622 589.8 34.5302 590.482 33.0349 590.482C31.5536 590.482 30.4216 589.8 29.639 588.436C28.8564 587.073 28.4651 585.103 28.4651 582.526C28.4651 579.963 28.8564 578.001 29.639 576.637C30.4216 575.274 31.5536 574.592 33.0349 574.592ZM29.9534 582.526C29.9534 584.353 30.1072 585.784 30.4146 586.818L35.0683 576.862C34.5791 576.158 33.9013 575.805 33.0349 575.805C32.0706 575.805 31.316 576.36 30.771 577.469C30.2259 578.562 29.9534 580.248 29.9534 582.526ZM33.0349 589.246C34.0131 589.246 34.7748 588.699 35.3198 587.605C35.8648 586.496 36.1373 584.803 36.1373 582.526C36.1373 580.593 35.9627 579.094 35.6133 578.031L30.9596 588.077C31.4627 588.856 32.1545 589.246 33.0349 589.246Z" fill="url(#paint10_linear_175_1868)" fill-opacity="0.6"/>
<path d="M34.2926 614.752H37.3741V615.943H29.3874V614.752H32.9511V602.121L29.5551 604.301L28.9682 603.289L33.1607 600.502H34.2926V614.752Z" fill="url(#paint11_linear_175_1868)" fill-opacity="0.6"/>
<path d="M34.2926 640.437H37.3741V641.628H29.3874V640.437H32.9511V627.806L29.5551 629.986L28.9682 628.975L33.1607 626.188H34.2926V640.437Z" fill="url(#paint12_linear_175_1868)" fill-opacity="0.6"/>
<path d="M71.9651 369.106C73.4604 369.106 74.5924 369.787 75.361 371.151C76.1436 372.499 76.5349 374.462 76.5349 377.039C76.5349 379.617 76.1436 381.587 75.361 382.95C74.5924 384.314 73.4604 384.996 71.9651 384.996C70.4838 384.996 69.3518 384.314 68.5692 382.95C67.7866 381.587 67.3953 379.617 67.3953 377.039C67.3953 374.477 67.7866 372.514 68.5692 371.151C69.3518 369.787 70.4838 369.106 71.9651 369.106ZM68.8836 377.039C68.8836 378.867 69.0374 380.298 69.3448 381.332L73.9985 371.376C73.5093 370.671 72.8315 370.319 71.9651 370.319C71.0008 370.319 70.2462 370.874 69.7012 371.983C69.1561 373.076 68.8836 374.762 68.8836 377.039ZM71.9651 383.759C72.9433 383.759 73.705 383.213 74.25 382.119C74.795 381.01 75.0675 379.317 75.0675 377.039C75.0675 375.107 74.8928 373.608 74.5435 372.544L69.8898 382.591C70.3929 383.37 71.0847 383.759 71.9651 383.759Z" fill="url(#paint13_linear_175_1868)" fill-opacity="0.6"/>
<path d="M73.2228 409.265H76.3043V410.457H68.3176V409.265H71.8812V396.634L68.4853 398.815L67.8984 397.803L72.0909 395.016H73.2228V409.265Z" fill="url(#paint14_linear_175_1868)" fill-opacity="0.6"/>
<path d="M71.9651 420.477C73.4604 420.477 74.5924 421.159 75.361 422.522C76.1436 423.871 76.5349 425.834 76.5349 428.411C76.5349 430.988 76.1436 432.958 75.361 434.322C74.5924 435.685 73.4604 436.367 71.9651 436.367C70.4838 436.367 69.3518 435.685 68.5692 434.322C67.7866 432.958 67.3953 430.988 67.3953 428.411C67.3953 425.849 67.7866 423.886 68.5692 422.522C69.3518 421.159 70.4838 420.477 71.9651 420.477ZM68.8836 428.411C68.8836 430.239 69.0374 431.67 69.3448 432.704L73.9985 422.747C73.5093 422.043 72.8315 421.691 71.9651 421.691C71.0008 421.691 70.2462 422.245 69.7012 423.354C69.1561 424.448 68.8836 426.133 68.8836 428.411ZM71.9651 435.131C72.9433 435.131 73.705 434.584 74.25 433.49C74.795 432.382 75.0675 430.688 75.0675 428.411C75.0675 426.478 74.8928 424.98 74.5435 423.916L69.8898 433.962C70.3929 434.741 71.0847 435.131 71.9651 435.131Z" fill="url(#paint15_linear_175_1868)" fill-opacity="0.6"/>
<path d="M71.9651 446.163C73.4604 446.163 74.5924 446.845 75.361 448.208C76.1436 449.557 76.5349 451.52 76.5349 454.097C76.5349 456.674 76.1436 458.644 75.361 460.008C74.5924 461.371 73.4604 462.053 71.9651 462.053C70.4838 462.053 69.3518 461.371 68.5692 460.008C67.7866 458.644 67.3953 456.674 67.3953 454.097C67.3953 451.535 67.7866 449.572 68.5692 448.208C69.3518 446.845 70.4838 446.163 71.9651 446.163ZM68.8836 454.097C68.8836 455.925 69.0374 457.356 69.3448 458.389L73.9985 448.433C73.5093 447.729 72.8315 447.377 71.9651 447.377C71.0008 447.377 70.2462 447.931 69.7012 449.04C69.1561 450.134 68.8836 451.819 68.8836 454.097ZM71.9651 460.817C72.9433 460.817 73.705 460.27 74.25 459.176C74.795 458.067 75.0675 456.374 75.0675 454.097C75.0675 452.164 74.8928 450.666 74.5435 449.602L69.8898 459.648C70.3929 460.427 71.0847 460.817 71.9651 460.817Z" fill="url(#paint16_linear_175_1868)" fill-opacity="0.6"/>
<path d="M73.2228 486.323H76.3043V487.514H68.3176V486.323H71.8812V473.692L68.4853 475.872L67.8984 474.86L72.0909 472.074H73.2228V486.323Z" fill="url(#paint17_linear_175_1868)" fill-opacity="0.6"/>
<path d="M71.9651 497.535C73.4604 497.535 74.5924 498.216 75.361 499.58C76.1436 500.928 76.5349 502.891 76.5349 505.468C76.5349 508.045 76.1436 510.016 75.361 511.379C74.5924 512.743 73.4604 513.424 71.9651 513.424C70.4838 513.424 69.3518 512.743 68.5692 511.379C67.7866 510.016 67.3953 508.045 67.3953 505.468C67.3953 502.906 67.7866 500.943 68.5692 499.58C69.3518 498.216 70.4838 497.535 71.9651 497.535ZM68.8836 505.468C68.8836 507.296 69.0374 508.727 69.3448 509.761L73.9985 499.805C73.5093 499.1 72.8315 498.748 71.9651 498.748C71.0008 498.748 70.2462 499.303 69.7012 500.411C69.1561 501.505 68.8836 503.191 68.8836 505.468ZM71.9651 512.188C72.9433 512.188 73.705 511.641 74.25 510.548C74.795 509.439 75.0675 507.746 75.0675 505.468C75.0675 503.535 74.8928 502.037 74.5435 500.973L69.8898 511.02C70.3929 511.799 71.0847 512.188 71.9651 512.188Z" fill="url(#paint18_linear_175_1868)" fill-opacity="0.6"/>
<path d="M73.2228 537.694H76.3043V538.885H68.3176V537.694H71.8812V525.063L68.4853 527.243L67.8984 526.232L72.0909 523.445H73.2228V537.694Z" fill="url(#paint19_linear_175_1868)" fill-opacity="0.6"/>
<path d="M71.9651 548.906C73.4604 548.906 74.5924 549.588 75.361 550.951C76.1436 552.3 76.5349 554.263 76.5349 556.84C76.5349 559.417 76.1436 561.387 75.361 562.751C74.5924 564.114 73.4604 564.796 71.9651 564.796C70.4838 564.796 69.3518 564.114 68.5692 562.751C67.7866 561.387 67.3953 559.417 67.3953 556.84C67.3953 554.278 67.7866 552.315 68.5692 550.951C69.3518 549.588 70.4838 548.906 71.9651 548.906ZM68.8836 556.84C68.8836 558.668 69.0374 560.099 69.3448 561.132L73.9985 551.176C73.5093 550.472 72.8315 550.12 71.9651 550.12C71.0008 550.12 70.2462 550.674 69.7012 551.783C69.1561 552.877 68.8836 554.562 68.8836 556.84ZM71.9651 563.56C72.9433 563.56 73.705 563.013 74.25 561.919C74.795 560.81 75.0675 559.117 75.0675 556.84C75.0675 554.907 74.8928 553.409 74.5435 552.345L69.8898 562.391C70.3929 563.17 71.0847 563.56 71.9651 563.56Z" fill="url(#paint20_linear_175_1868)" fill-opacity="0.6"/>
<path d="M71.9651 574.592C73.4604 574.592 74.5924 575.274 75.361 576.637C76.1436 577.986 76.5349 579.948 76.5349 582.526C76.5349 585.103 76.1436 587.073 75.361 588.436C74.5924 589.8 73.4604 590.482 71.9651 590.482C70.4838 590.482 69.3518 589.8 68.5692 588.436C67.7866 587.073 67.3953 585.103 67.3953 582.526C67.3953 579.963 67.7866 578.001 68.5692 576.637C69.3518 575.274 70.4838 574.592 71.9651 574.592ZM68.8836 582.526C68.8836 584.353 69.0374 585.784 69.3448 586.818L73.9985 576.862C73.5093 576.158 72.8315 575.805 71.9651 575.805C71.0008 575.805 70.2462 576.36 69.7012 577.469C69.1561 578.562 68.8836 580.248 68.8836 582.526ZM71.9651 589.246C72.9433 589.246 73.705 588.699 74.25 587.605C74.795 586.496 75.0675 584.803 75.0675 582.526C75.0675 580.593 74.8928 579.094 74.5435 578.031L69.8898 588.077C70.3929 588.856 71.0847 589.246 71.9651 589.246Z" fill="url(#paint21_linear_175_1868)" fill-opacity="0.6"/>
<path d="M73.2228 614.752H76.3043V615.943H68.3176V614.752H71.8812V602.121L68.4853 604.301L67.8984 603.289L72.0909 600.502H73.2228V614.752Z" fill="url(#paint22_linear_175_1868)" fill-opacity="0.6"/>
<path d="M71.9651 625.963C73.4604 625.963 74.5924 626.645 75.361 628.009C76.1436 629.357 76.5349 631.32 76.5349 633.897C76.5349 636.474 76.1436 638.444 75.361 639.808C74.5924 641.171 73.4604 641.853 71.9651 641.853C70.4838 641.853 69.3518 641.171 68.5692 639.808C67.7866 638.444 67.3953 636.474 67.3953 633.897C67.3953 631.335 67.7866 629.372 68.5692 628.009C69.3518 626.645 70.4838 625.963 71.9651 625.963ZM68.8836 633.897C68.8836 635.725 69.0374 637.156 69.3448 638.19L73.9985 628.233C73.5093 627.529 72.8315 627.177 71.9651 627.177C71.0008 627.177 70.2462 627.731 69.7012 628.84C69.1561 629.934 68.8836 631.62 68.8836 633.897ZM71.9651 640.617C72.9433 640.617 73.705 640.07 74.25 638.976C74.795 637.868 75.0675 636.175 75.0675 633.897C75.0675 631.964 74.8928 630.466 74.5435 629.402L69.8898 639.448C70.3929 640.228 71.0847 640.617 71.9651 640.617Z" fill="url(#paint23_linear_175_1868)" fill-opacity="0.6"/>
<path d="M73.2228 666.123H76.3043V667.314H68.3176V666.123H71.8812V653.492L68.4853 655.672L67.8984 654.661L72.0909 651.874H73.2228V666.123Z" fill="url(#paint24_linear_175_1868)" fill-opacity="0.6"/>
<path d="M73.2228 691.809H76.3043V693H68.3176V691.809H71.8812V679.178L68.4853 681.358L67.8984 680.347L72.0909 677.56H73.2228V691.809Z" fill="url(#paint25_linear_175_1868)" fill-opacity="0.6"/>
<path d="M13.5698 394.791C15.0651 394.791 16.1971 395.473 16.9657 396.837C17.7483 398.185 18.1396 400.148 18.1396 402.725C18.1396 405.302 17.7483 407.273 16.9657 408.636C16.1971 410 15.0651 410.681 13.5698 410.681C12.0885 410.681 10.9565 410 10.1739 408.636C9.3913 407.273 9 405.302 9 402.725C9 400.163 9.3913 398.2 10.1739 396.837C10.9565 395.473 12.0885 394.791 13.5698 394.791ZM10.4883 402.725C10.4883 404.553 10.6421 405.984 10.9495 407.018L15.6032 397.061C15.114 396.357 14.4363 396.005 13.5698 396.005C12.6055 396.005 11.8509 396.56 11.3059 397.668C10.7608 398.762 10.4883 400.448 10.4883 402.725ZM13.5698 409.445C14.5481 409.445 15.3097 408.898 15.8547 407.805C16.3997 406.696 16.6722 405.003 16.6722 402.725C16.6722 400.792 16.4976 399.294 16.1482 398.23L11.4945 408.277C11.9976 409.056 12.6894 409.445 13.5698 409.445Z" fill="url(#paint26_linear_175_1868)" fill-opacity="0.6"/>
<path d="M13.5698 420.477C15.0651 420.477 16.1971 421.159 16.9657 422.522C17.7483 423.871 18.1396 425.834 18.1396 428.411C18.1396 430.988 17.7483 432.958 16.9657 434.322C16.1971 435.685 15.0651 436.367 13.5698 436.367C12.0885 436.367 10.9565 435.685 10.1739 434.322C9.3913 432.958 9 430.988 9 428.411C9 425.849 9.3913 423.886 10.1739 422.522C10.9565 421.159 12.0885 420.477 13.5698 420.477ZM10.4883 428.411C10.4883 430.239 10.6421 431.67 10.9495 432.704L15.6032 422.747C15.114 422.043 14.4363 421.691 13.5698 421.691C12.6055 421.691 11.8509 422.245 11.3059 423.354C10.7608 424.448 10.4883 426.133 10.4883 428.411ZM13.5698 435.131C14.5481 435.131 15.3097 434.584 15.8547 433.49C16.3997 432.382 16.6722 430.688 16.6722 428.411C16.6722 426.478 16.4976 424.98 16.1482 423.916L11.4945 433.962C11.9976 434.741 12.6894 435.131 13.5698 435.131Z" fill="url(#paint27_linear_175_1868)" fill-opacity="0.6"/>
<path d="M14.8276 460.637H17.909V461.828H9.92235V460.637H13.486V448.006L10.09 450.186L9.5031 449.175L13.6956 446.388H14.8276V460.637Z" fill="url(#paint28_linear_175_1868)" fill-opacity="0.6"/>
<path d="M13.5698 471.849C15.0651 471.849 16.1971 472.531 16.9657 473.894C17.7483 475.243 18.1396 477.205 18.1396 479.782C18.1396 482.36 17.7483 484.33 16.9657 485.693C16.1971 487.057 15.0651 487.739 13.5698 487.739C12.0885 487.739 10.9565 487.057 10.1739 485.693C9.3913 484.33 9 482.36 9 479.782C9 477.22 9.3913 475.258 10.1739 473.894C10.9565 472.531 12.0885 471.849 13.5698 471.849ZM10.4883 479.782C10.4883 481.61 10.6421 483.041 10.9495 484.075L15.6032 474.119C15.114 473.415 14.4363 473.062 13.5698 473.062C12.6055 473.062 11.8509 473.617 11.3059 474.726C10.7608 475.819 10.4883 477.505 10.4883 479.782ZM13.5698 486.503C14.5481 486.503 15.3097 485.956 15.8547 484.862C16.3997 483.753 16.6722 482.06 16.6722 479.782C16.6722 477.85 16.4976 476.351 16.1482 475.287L11.4945 485.334C11.9976 486.113 12.6894 486.503 13.5698 486.503Z" fill="url(#paint29_linear_175_1868)" fill-opacity="0.6"/>
<path d="M14.8276 512.008H17.909V513.2H9.92235V512.008H13.486V499.378L10.09 501.558L9.5031 500.546L13.6956 497.759H14.8276V512.008Z" fill="url(#paint30_linear_175_1868)" fill-opacity="0.6"/>
<path d="M14.8276 537.694H17.909V538.885H9.92235V537.694H13.486V525.063L10.09 527.243L9.5031 526.232L13.6956 523.445H14.8276V537.694Z" fill="url(#paint31_linear_175_1868)" fill-opacity="0.6"/>
<path d="M53.7577 357.894H56.8392V359.085H48.8525V357.894H52.4162V345.263L49.0202 347.443L48.4333 346.432L52.6258 343.645H53.7577V357.894Z" fill="url(#paint32_linear_175_1868)" fill-opacity="0.6"/>
<path d="M52.5 369.106C53.9953 369.106 55.1273 369.787 55.8959 371.151C56.6785 372.499 57.0698 374.462 57.0698 377.039C57.0698 379.617 56.6785 381.587 55.8959 382.95C55.1273 384.314 53.9953 384.996 52.5 384.996C51.0187 384.996 49.8867 384.314 49.1041 382.95C48.3215 381.587 47.9302 379.617 47.9302 377.039C47.9302 374.477 48.3215 372.514 49.1041 371.151C49.8867 369.787 51.0187 369.106 52.5 369.106ZM49.4185 377.039C49.4185 378.867 49.5723 380.298 49.8797 381.332L54.5334 371.376C54.0442 370.671 53.3664 370.319 52.5 370.319C51.5357 370.319 50.7811 370.874 50.2361 371.983C49.691 373.076 49.4185 374.762 49.4185 377.039ZM52.5 383.759C53.4782 383.759 54.2399 383.213 54.7849 382.119C55.3299 381.01 55.6024 379.317 55.6024 377.039C55.6024 375.107 55.4277 373.608 55.0784 372.544L50.4247 382.591C50.9278 383.37 51.6196 383.759 52.5 383.759Z" fill="url(#paint33_linear_175_1868)" fill-opacity="0.6"/>
<path d="M53.7577 409.265H56.8392V410.457H48.8525V409.265H52.4162V396.634L49.0202 398.815L48.4333 397.803L52.6258 395.016H53.7577V409.265Z" fill="url(#paint34_linear_175_1868)" fill-opacity="0.6"/>
<path d="M53.7577 434.951H56.8392V436.142H48.8525V434.951H52.4162V422.32L49.0202 424.5L48.4333 423.489L52.6258 420.702H53.7577V434.951Z" fill="url(#paint35_linear_175_1868)" fill-opacity="0.6"/>
<path d="M52.5 446.163C53.9953 446.163 55.1273 446.845 55.8959 448.208C56.6785 449.557 57.0698 451.52 57.0698 454.097C57.0698 456.674 56.6785 458.644 55.8959 460.008C55.1273 461.371 53.9953 462.053 52.5 462.053C51.0187 462.053 49.8867 461.371 49.1041 460.008C48.3215 458.644 47.9302 456.674 47.9302 454.097C47.9302 451.535 48.3215 449.572 49.1041 448.208C49.8867 446.845 51.0187 446.163 52.5 446.163ZM49.4185 454.097C49.4185 455.925 49.5723 457.356 49.8797 458.389L54.5334 448.433C54.0442 447.729 53.3664 447.377 52.5 447.377C51.5357 447.377 50.7811 447.931 50.2361 449.04C49.691 450.134 49.4185 451.819 49.4185 454.097ZM52.5 460.817C53.4782 460.817 54.2399 460.27 54.7849 459.176C55.3299 458.067 55.6024 456.374 55.6024 454.097C55.6024 452.164 55.4277 450.666 55.0784 449.602L50.4247 459.648C50.9278 460.427 51.6196 460.817 52.5 460.817Z" fill="url(#paint36_linear_175_1868)" fill-opacity="0.6"/>
<path d="M53.7577 486.323H56.8392V487.514H48.8525V486.323H52.4162V473.692L49.0202 475.872L48.4333 474.86L52.6258 472.074H53.7577V486.323Z" fill="url(#paint37_linear_175_1868)" fill-opacity="0.6"/>
<path d="M53.7577 512.008H56.8392V513.2H48.8525V512.008H52.4162V499.378L49.0202 501.558L48.4333 500.546L52.6258 497.759H53.7577V512.008Z" fill="url(#paint38_linear_175_1868)" fill-opacity="0.6"/>
<path d="M52.5 523.22C53.9953 523.22 55.1273 523.902 55.8959 525.266C56.6785 526.614 57.0698 528.577 57.0698 531.154C57.0698 533.731 56.6785 535.701 55.8959 537.065C55.1273 538.428 53.9953 539.11 52.5 539.11C51.0187 539.11 49.8867 538.428 49.1041 537.065C48.3215 535.701 47.9302 533.731 47.9302 531.154C47.9302 528.592 48.3215 526.629 49.1041 525.266C49.8867 523.902 51.0187 523.22 52.5 523.22ZM49.4185 531.154C49.4185 532.982 49.5723 534.413 49.8797 535.447L54.5334 525.49C54.0442 524.786 53.3664 524.434 52.5 524.434C51.5357 524.434 50.7811 524.988 50.2361 526.097C49.691 527.191 49.4185 528.877 49.4185 531.154ZM52.5 537.874C53.4782 537.874 54.2399 537.327 54.7849 536.233C55.3299 535.125 55.6024 533.431 55.6024 531.154C55.6024 529.221 55.4277 527.723 55.0784 526.659L50.4247 536.705C50.9278 537.484 51.6196 537.874 52.5 537.874Z" fill="url(#paint39_linear_175_1868)" fill-opacity="0.6"/>
<path d="M53.7577 563.38H56.8392V564.571H48.8525V563.38H52.4162V550.749L49.0202 552.929L48.4333 551.918L52.6258 549.131H53.7577V563.38Z" fill="url(#paint40_linear_175_1868)" fill-opacity="0.6"/>
<path d="M52.5 574.592C53.9953 574.592 55.1273 575.274 55.8959 576.637C56.6785 577.986 57.0698 579.948 57.0698 582.526C57.0698 585.103 56.6785 587.073 55.8959 588.436C55.1273 589.8 53.9953 590.482 52.5 590.482C51.0187 590.482 49.8867 589.8 49.1041 588.436C48.3215 587.073 47.9302 585.103 47.9302 582.526C47.9302 579.963 48.3215 578.001 49.1041 576.637C49.8867 575.274 51.0187 574.592 52.5 574.592ZM49.4185 582.526C49.4185 584.353 49.5723 585.784 49.8797 586.818L54.5334 576.862C54.0442 576.158 53.3664 575.805 52.5 575.805C51.5357 575.805 50.7811 576.36 50.2361 577.469C49.691 578.562 49.4185 580.248 49.4185 582.526ZM52.5 589.246C53.4782 589.246 54.2399 588.699 54.7849 587.605C55.3299 586.496 55.6024 584.803 55.6024 582.526C55.6024 580.593 55.4277 579.094 55.0784 578.031L50.4247 588.077C50.9278 588.856 51.6196 589.246 52.5 589.246Z" fill="url(#paint41_linear_175_1868)" fill-opacity="0.6"/>
<path d="M91.4302 343.42C92.9255 343.42 94.0575 344.102 94.8261 345.465C95.6087 346.814 96 348.777 96 351.354C96 353.931 95.6087 355.901 94.8261 357.265C94.0575 358.628 92.9255 359.31 91.4302 359.31C89.9489 359.31 88.8169 358.628 88.0343 357.265C87.2517 355.901 86.8604 353.931 86.8604 351.354C86.8604 348.791 87.2517 346.829 88.0343 345.465C88.8169 344.102 89.9489 343.42 91.4302 343.42ZM88.3487 351.354C88.3487 353.182 88.5024 354.613 88.8099 355.646L93.4636 345.69C92.9744 344.986 92.2966 344.634 91.4302 344.634C90.4659 344.634 89.7113 345.188 89.1663 346.297C88.6212 347.391 88.3487 349.076 88.3487 351.354ZM91.4302 358.074C92.4084 358.074 93.1701 357.527 93.7151 356.433C94.2601 355.324 94.5326 353.631 94.5326 351.354C94.5326 349.421 94.3579 347.922 94.0086 346.859L89.3549 356.905C89.858 357.684 90.5498 358.074 91.4302 358.074Z" fill="url(#paint42_linear_175_1868)" fill-opacity="0.6"/>
<path d="M92.6879 383.58H95.7694V384.771H87.7827V383.58H91.3463V370.949L87.9504 373.129L87.3635 372.117L91.556 369.33H92.6879V383.58Z" fill="url(#paint43_linear_175_1868)" fill-opacity="0.6"/>
<path d="M92.6879 409.265H95.7694V410.457H87.7827V409.265H91.3463V396.634L87.9504 398.815L87.3635 397.803L91.556 395.016H92.6879V409.265Z" fill="url(#paint44_linear_175_1868)" fill-opacity="0.6"/>
<path d="M91.4302 420.477C92.9255 420.477 94.0575 421.159 94.8261 422.522C95.6087 423.871 96 425.834 96 428.411C96 430.988 95.6087 432.958 94.8261 434.322C94.0575 435.685 92.9255 436.367 91.4302 436.367C89.9489 436.367 88.8169 435.685 88.0343 434.322C87.2517 432.958 86.8604 430.988 86.8604 428.411C86.8604 425.849 87.2517 423.886 88.0343 422.522C88.8169 421.159 89.9489 420.477 91.4302 420.477ZM88.3487 428.411C88.3487 430.239 88.5024 431.67 88.8099 432.704L93.4636 422.747C92.9744 422.043 92.2966 421.691 91.4302 421.691C90.4659 421.691 89.7113 422.245 89.1663 423.354C88.6212 424.448 88.3487 426.133 88.3487 428.411ZM91.4302 435.131C92.4084 435.131 93.1701 434.584 93.7151 433.49C94.2601 432.382 94.5326 430.688 94.5326 428.411C94.5326 426.478 94.3579 424.98 94.0086 423.916L89.3549 433.962C89.858 434.741 90.5498 435.131 91.4302 435.131Z" fill="url(#paint45_linear_175_1868)" fill-opacity="0.6"/>
<path d="M91.4302 446.163C92.9255 446.163 94.0575 446.845 94.8261 448.208C95.6087 449.557 96 451.52 96 454.097C96 456.674 95.6087 458.644 94.8261 460.008C94.0575 461.371 92.9255 462.053 91.4302 462.053C89.9489 462.053 88.8169 461.371 88.0343 460.008C87.2517 458.644 86.8604 456.674 86.8604 454.097C86.8604 451.535 87.2517 449.572 88.0343 448.208C88.8169 446.845 89.9489 446.163 91.4302 446.163ZM88.3487 454.097C88.3487 455.925 88.5024 457.356 88.8099 458.389L93.4636 448.433C92.9744 447.729 92.2966 447.377 91.4302 447.377C90.4659 447.377 89.7113 447.931 89.1663 449.04C88.6212 450.134 88.3487 451.819 88.3487 454.097ZM91.4302 460.817C92.4084 460.817 93.1701 460.27 93.7151 459.176C94.2601 458.067 94.5326 456.374 94.5326 454.097C94.5326 452.164 94.3579 450.666 94.0086 449.602L89.3549 459.648C89.858 460.427 90.5498 460.817 91.4302 460.817Z" fill="url(#paint46_linear_175_1868)" fill-opacity="0.6"/>
<g opacity="0.6">
<path d="M919.93 -6.70312C921.356 -6.70312 922.436 -6.04889 923.17 -4.74041C923.916 -3.44632 924.29 -1.56269 924.29 0.910475C924.29 3.38364 923.916 5.27445 923.17 6.58293C922.436 7.89141 921.356 8.54564 919.93 8.54564C918.517 8.54564 917.437 7.89141 916.69 6.58293C915.943 5.27445 915.57 3.38364 915.57 0.910475C915.57 -1.54831 915.943 -3.43194 916.69 -4.74041C917.437 -6.04889 918.517 -6.70312 919.93 -6.70312ZM916.99 0.910475C916.99 2.66469 917.137 4.03787 917.43 5.03001L921.87 -4.52473C921.403 -5.20054 920.756 -5.53844 919.93 -5.53844C919.01 -5.53844 918.29 -5.00642 917.77 -3.94239C917.25 -2.89273 916.99 -1.27511 916.99 0.910475ZM919.93 7.35939C920.863 7.35939 921.59 6.83456 922.11 5.7849C922.63 4.72087 922.89 3.09606 922.89 0.910475C922.89 -0.944396 922.723 -2.38228 922.39 -3.40318L917.95 6.23784C918.43 6.98554 919.09 7.35939 919.93 7.35939Z" fill="url(#paint47_linear_175_1868)"/>
<path d="M921.13 31.8363H924.07V32.9794H916.45V31.8363H919.85V19.7149L916.61 21.807L916.05 20.8365L920.05 18.162H921.13V31.8363Z" fill="url(#paint48_linear_175_1868)"/>
<path d="M919.93 42.5958C921.356 42.5958 922.436 43.25 923.17 44.5585C923.916 45.8526 924.29 47.7362 924.29 50.2094C924.29 52.6825 923.916 54.5734 923.17 55.8818C922.436 57.1903 921.356 57.8445 919.93 57.8445C918.517 57.8445 917.437 57.1903 916.69 55.8818C915.943 54.5734 915.57 52.6825 915.57 50.2094C915.57 47.7506 915.943 45.867 916.69 44.5585C917.437 43.25 918.517 42.5958 919.93 42.5958ZM916.99 50.2094C916.99 51.9636 917.137 53.3368 917.43 54.3289L921.87 44.7742C921.403 44.0984 920.756 43.7605 919.93 43.7605C919.01 43.7605 918.29 44.2925 917.77 45.3565C917.25 46.4062 916.99 48.0238 916.99 50.2094ZM919.93 56.6583C920.863 56.6583 921.59 56.1335 922.11 55.0838C922.63 54.0198 922.89 52.395 922.89 50.2094C922.89 48.3545 922.723 46.9166 922.39 45.8957L917.95 55.5367C918.43 56.2844 919.09 56.6583 919.93 56.6583Z" fill="url(#paint49_linear_175_1868)"/>
<path d="M921.13 81.1352H924.07V82.2783H916.45V81.1352H919.85V69.0138L916.61 71.1059L916.05 70.1354L920.05 67.4609H921.13V81.1352Z" fill="url(#paint50_linear_175_1868)"/>
<path d="M921.13 105.785H924.07V106.928H916.45V105.785H919.85V93.6633L916.61 95.7554L916.05 94.7848L920.05 92.1104H921.13V105.785Z" fill="url(#paint51_linear_175_1868)"/>
<path d="M919.93 116.544C921.356 116.544 922.436 117.198 923.17 118.507C923.916 119.801 924.29 121.685 924.29 124.158C924.29 126.631 923.916 128.522 923.17 129.83C922.436 131.139 921.356 131.793 919.93 131.793C918.517 131.793 917.437 131.139 916.69 129.83C915.943 128.522 915.57 126.631 915.57 124.158C915.57 121.699 915.943 119.815 916.69 118.507C917.437 117.198 918.517 116.544 919.93 116.544ZM916.99 124.158C916.99 125.912 917.137 127.285 917.43 128.277L921.87 118.723C921.403 118.047 920.756 117.709 919.93 117.709C919.01 117.709 918.29 118.241 917.77 119.305C917.25 120.355 916.99 121.972 916.99 124.158ZM919.93 130.607C920.863 130.607 921.59 130.082 922.11 129.032C922.63 127.968 922.89 126.343 922.89 124.158C922.89 122.303 922.723 120.865 922.39 119.844L917.95 129.485C918.43 130.233 919.09 130.607 919.93 130.607Z" fill="url(#paint52_linear_175_1868)"/>
<path d="M921.13 155.084H924.07V156.227H916.45V155.084H919.85V142.962L916.61 145.054L916.05 144.084L920.05 141.409H921.13V155.084Z" fill="url(#paint53_linear_175_1868)"/>
<path d="M919.93 165.843C921.356 165.843 922.436 166.497 923.17 167.806C923.916 169.1 924.29 170.983 924.29 173.457C924.29 175.93 923.916 177.821 923.17 179.129C922.436 180.438 921.356 181.092 919.93 181.092C918.517 181.092 917.437 180.438 916.69 179.129C915.943 177.821 915.57 175.93 915.57 173.457C915.57 170.998 915.943 169.114 916.69 167.806C917.437 166.497 918.517 165.843 919.93 165.843ZM916.99 173.457C916.99 175.211 917.137 176.584 917.43 177.576L921.87 168.021C921.403 167.346 920.756 167.008 919.93 167.008C919.01 167.008 918.29 167.54 917.77 168.604C917.25 169.653 916.99 171.271 916.99 173.457ZM919.93 179.906C920.863 179.906 921.59 179.381 922.11 178.331C922.63 177.267 922.89 175.642 922.89 173.457C922.89 171.602 922.723 170.164 922.39 169.143L917.95 178.784C918.43 179.532 919.09 179.906 919.93 179.906Z" fill="url(#paint54_linear_175_1868)"/>
<path d="M919.93 190.492C921.356 190.492 922.436 191.147 923.17 192.455C923.916 193.749 924.29 195.633 924.29 198.106C924.29 200.579 923.916 202.47 923.17 203.779C922.436 205.087 921.356 205.741 919.93 205.741C918.517 205.741 917.437 205.087 916.69 203.779C915.943 202.47 915.57 200.579 915.57 198.106C915.57 195.647 915.943 193.764 916.69 192.455C917.437 191.147 918.517 190.492 919.93 190.492ZM916.99 198.106C916.99 199.86 917.137 201.233 917.43 202.226L921.87 192.671C921.403 191.995 920.756 191.657 919.93 191.657C919.01 191.657 918.29 192.189 917.77 193.253C917.25 194.303 916.99 195.921 916.99 198.106ZM919.93 204.555C920.863 204.555 921.59 204.03 922.11 202.981C922.63 201.916 922.89 200.292 922.89 198.106C922.89 196.251 922.723 194.813 922.39 193.792L917.95 203.433C918.43 204.181 919.09 204.555 919.93 204.555Z" fill="url(#paint55_linear_175_1868)"/>
<path d="M921.13 229.032H924.07V230.175H916.45V229.032H919.85V216.911L916.61 219.003L916.05 218.032L920.05 215.358H921.13V229.032Z" fill="url(#paint56_linear_175_1868)"/>
<path d="M919.93 239.791C921.356 239.791 922.436 240.446 923.17 241.754C923.916 243.048 924.29 244.932 924.29 247.405C924.29 249.878 923.916 251.769 923.17 253.077C922.436 254.386 921.356 255.04 919.93 255.04C918.517 255.04 917.437 254.386 916.69 253.077C915.943 251.769 915.57 249.878 915.57 247.405C915.57 244.946 915.943 243.063 916.69 241.754C917.437 240.446 918.517 239.791 919.93 239.791ZM916.99 247.405C916.99 249.159 917.137 250.532 917.43 251.525L921.87 241.97C921.403 241.294 920.756 240.956 919.93 240.956C919.01 240.956 918.29 241.488 917.77 242.552C917.25 243.602 916.99 245.219 916.99 247.405ZM919.93 253.854C920.863 253.854 921.59 253.329 922.11 252.279C922.63 251.215 922.89 249.591 922.89 247.405C922.89 245.55 922.723 244.112 922.39 243.091L917.95 252.732C918.43 253.48 919.09 253.854 919.93 253.854Z" fill="url(#paint57_linear_175_1868)"/>
<path d="M921.13 278.331H924.07V279.474H916.45V278.331H919.85V266.209L916.61 268.302L916.05 267.331L920.05 264.657H921.13V278.331Z" fill="url(#paint58_linear_175_1868)"/>
<path d="M921.13 302.98H924.07V304.123H916.45V302.98H919.85V290.859L916.61 292.951L916.05 291.98L920.05 289.306H921.13V302.98Z" fill="url(#paint59_linear_175_1868)"/>
<path d="M957.07 42.5958C958.497 42.5958 959.577 43.25 960.31 44.5585C961.057 45.8526 961.43 47.7362 961.43 50.2094C961.43 52.6825 961.057 54.5734 960.31 55.8818C959.577 57.1903 958.497 57.8445 957.07 57.8445C955.657 57.8445 954.577 57.1903 953.83 55.8818C953.084 54.5734 952.71 52.6825 952.71 50.2094C952.71 47.7506 953.084 45.867 953.83 44.5585C954.577 43.25 955.657 42.5958 957.07 42.5958ZM954.13 50.2094C954.13 51.9636 954.277 53.3368 954.57 54.3289L959.01 44.7742C958.543 44.0984 957.897 43.7605 957.07 43.7605C956.15 43.7605 955.43 44.2925 954.91 45.3565C954.39 46.4062 954.13 48.0238 954.13 50.2094ZM957.07 56.6583C958.003 56.6583 958.73 56.1335 959.25 55.0838C959.77 54.0198 960.03 52.395 960.03 50.2094C960.03 48.3545 959.863 46.9166 959.53 45.8957L955.09 55.5367C955.57 56.2844 956.23 56.6583 957.07 56.6583Z" fill="url(#paint60_linear_175_1868)"/>
<path d="M958.27 81.1352H961.21V82.2783H953.59V81.1352H956.99V69.0138L953.75 71.1059L953.19 70.1354L957.19 67.4609H958.27V81.1352Z" fill="url(#paint61_linear_175_1868)"/>
<path d="M957.07 91.8947C958.497 91.8947 959.577 92.5489 960.31 93.8574C961.057 95.1515 961.43 97.0351 961.43 99.5083C961.43 101.981 961.057 103.872 960.31 105.181C959.577 106.489 958.497 107.143 957.07 107.143C955.657 107.143 954.577 106.489 953.83 105.181C953.084 103.872 952.71 101.981 952.71 99.5083C952.71 97.0495 953.084 95.1659 953.83 93.8574C954.577 92.5489 955.657 91.8947 957.07 91.8947ZM954.13 99.5083C954.13 101.262 954.277 102.636 954.57 103.628L959.01 94.0731C958.543 93.3973 957.897 93.0594 957.07 93.0594C956.15 93.0594 955.43 93.5914 954.91 94.6554C954.39 95.7051 954.13 97.3227 954.13 99.5083ZM957.07 105.957C958.003 105.957 958.73 105.432 959.25 104.383C959.77 103.319 960.03 101.694 960.03 99.5083C960.03 97.6534 959.863 96.2155 959.53 95.1946L955.09 104.836C955.57 105.583 956.23 105.957 957.07 105.957Z" fill="url(#paint62_linear_175_1868)"/>
<path d="M957.07 116.544C958.497 116.544 959.577 117.198 960.31 118.507C961.057 119.801 961.43 121.685 961.43 124.158C961.43 126.631 961.057 128.522 960.31 129.83C959.577 131.139 958.497 131.793 957.07 131.793C955.657 131.793 954.577 131.139 953.83 129.83C953.084 128.522 952.71 126.631 952.71 124.158C952.71 121.699 953.084 119.815 953.83 118.507C954.577 117.198 955.657 116.544 957.07 116.544ZM954.13 124.158C954.13 125.912 954.277 127.285 954.57 128.277L959.01 118.723C958.543 118.047 957.897 117.709 957.07 117.709C956.15 117.709 955.43 118.241 954.91 119.305C954.39 120.355 954.13 121.972 954.13 124.158ZM957.07 130.607C958.003 130.607 958.73 130.082 959.25 129.032C959.77 127.968 960.03 126.343 960.03 124.158C960.03 122.303 959.863 120.865 959.53 119.844L955.09 129.485C955.57 130.233 956.23 130.607 957.07 130.607Z" fill="url(#paint63_linear_175_1868)"/>
<path d="M958.27 155.084H961.21V156.227H953.59V155.084H956.99V142.962L953.75 145.054L953.19 144.084L957.19 141.409H958.27V155.084Z" fill="url(#paint64_linear_175_1868)"/>
<path d="M957.07 165.843C958.497 165.843 959.577 166.497 960.31 167.806C961.057 169.1 961.43 170.983 961.43 173.457C961.43 175.93 961.057 177.821 960.31 179.129C959.577 180.438 958.497 181.092 957.07 181.092C955.657 181.092 954.577 180.438 953.83 179.129C953.084 177.821 952.71 175.93 952.71 173.457C952.71 170.998 953.084 169.114 953.83 167.806C954.577 166.497 955.657 165.843 957.07 165.843ZM954.13 173.457C954.13 175.211 954.277 176.584 954.57 177.576L959.01 168.021C958.543 167.346 957.897 167.008 957.07 167.008C956.15 167.008 955.43 167.54 954.91 168.604C954.39 169.653 954.13 171.271 954.13 173.457ZM957.07 179.906C958.003 179.906 958.73 179.381 959.25 178.331C959.77 177.267 960.03 175.642 960.03 173.457C960.03 171.602 959.863 170.164 959.53 169.143L955.09 178.784C955.57 179.532 956.23 179.906 957.07 179.906Z" fill="url(#paint65_linear_175_1868)"/>
<path d="M958.27 204.382H961.21V205.526H953.59V204.382H956.99V192.261L953.75 194.353L953.19 193.383L957.19 190.708H958.27V204.382Z" fill="url(#paint66_linear_175_1868)"/>
<path d="M957.07 215.142C958.497 215.142 959.577 215.796 960.31 217.105C961.057 218.399 961.43 220.282 961.43 222.756C961.43 225.229 961.057 227.12 960.31 228.428C959.577 229.736 958.497 230.391 957.07 230.391C955.657 230.391 954.577 229.736 953.83 228.428C953.084 227.12 952.71 225.229 952.71 222.756C952.71 220.297 953.084 218.413 953.83 217.105C954.577 215.796 955.657 215.142 957.07 215.142ZM954.13 222.756C954.13 224.51 954.277 225.883 954.57 226.875L959.01 217.32C958.543 216.645 957.897 216.307 957.07 216.307C956.15 216.307 955.43 216.839 954.91 217.903C954.39 218.952 954.13 220.57 954.13 222.756ZM957.07 229.204C958.003 229.204 958.73 228.68 959.25 227.63C959.77 226.566 960.03 224.941 960.03 222.756C960.03 220.901 959.863 219.463 959.53 218.442L955.09 228.083C955.57 228.831 956.23 229.204 957.07 229.204Z" fill="url(#paint67_linear_175_1868)"/>
<path d="M957.07 239.791C958.497 239.791 959.577 240.446 960.31 241.754C961.057 243.048 961.43 244.932 961.43 247.405C961.43 249.878 961.057 251.769 960.31 253.077C959.577 254.386 958.497 255.04 957.07 255.04C955.657 255.04 954.577 254.386 953.83 253.077C953.084 251.769 952.71 249.878 952.71 247.405C952.71 244.946 953.084 243.063 953.83 241.754C954.577 240.446 955.657 239.791 957.07 239.791ZM954.13 247.405C954.13 249.159 954.277 250.532 954.57 251.525L959.01 241.97C958.543 241.294 957.897 240.956 957.07 240.956C956.15 240.956 955.43 241.488 954.91 242.552C954.39 243.602 954.13 245.219 954.13 247.405ZM957.07 253.854C958.003 253.854 958.73 253.329 959.25 252.279C959.77 251.215 960.03 249.591 960.03 247.405C960.03 245.55 959.863 244.112 959.53 243.091L955.09 252.732C955.57 253.48 956.23 253.854 957.07 253.854Z" fill="url(#paint68_linear_175_1868)"/>
<path d="M958.27 278.331H961.21V279.474H953.59V278.331H956.99V266.209L953.75 268.302L953.19 267.331L957.19 264.657H958.27V278.331Z" fill="url(#paint69_linear_175_1868)"/>
<path d="M957.07 289.09C958.497 289.09 959.577 289.745 960.31 291.053C961.057 292.347 961.43 294.231 961.43 296.704C961.43 299.177 961.057 301.068 960.31 302.376C959.577 303.685 958.497 304.339 957.07 304.339C955.657 304.339 954.577 303.685 953.83 302.376C953.084 301.068 952.71 299.177 952.71 296.704C952.71 294.245 953.084 292.361 953.83 291.053C954.577 289.745 955.657 289.09 957.07 289.09ZM954.13 296.704C954.13 298.458 954.277 299.831 954.57 300.823L959.01 291.269C958.543 290.593 957.897 290.255 957.07 290.255C956.15 290.255 955.43 290.787 954.91 291.851C954.39 292.901 954.13 294.518 954.13 296.704ZM957.07 303.153C958.003 303.153 958.73 302.628 959.25 301.578C959.77 300.514 960.03 298.889 960.03 296.704C960.03 294.849 959.863 293.411 959.53 292.39L955.09 302.031C955.57 302.779 956.23 303.153 957.07 303.153Z" fill="url(#paint70_linear_175_1868)"/>
<path d="M958.27 327.63H961.21V328.773H953.59V327.63H956.99V315.508L953.75 317.6L953.19 316.63L957.19 313.955H958.27V327.63Z" fill="url(#paint71_linear_175_1868)"/>
<path d="M958.27 352.279H961.21V353.422H953.59V352.279H956.99V340.158L953.75 342.25L953.19 341.279L957.19 338.605H958.27V352.279Z" fill="url(#paint72_linear_175_1868)"/>
<path d="M901.36 67.2452C902.786 67.2452 903.866 67.8995 904.599 69.2079C905.346 70.502 905.719 72.3857 905.719 74.8588C905.719 77.332 905.346 79.2228 904.599 80.5313C903.866 81.8398 902.786 82.494 901.36 82.494C899.946 82.494 898.867 81.8398 898.12 80.5313C897.373 79.2228 897 77.332 897 74.8588C897 72.4 897.373 70.5164 898.12 69.2079C898.867 67.8995 899.946 67.2452 901.36 67.2452ZM898.42 74.8588C898.42 76.6131 898.567 77.9862 898.86 78.9784L903.3 69.4236C902.833 68.7478 902.186 68.4099 901.36 68.4099C900.44 68.4099 899.72 68.9419 899.2 70.006C898.68 71.0556 898.42 72.6732 898.42 74.8588ZM901.36 81.3077C902.293 81.3077 903.02 80.7829 903.54 79.7333C904.06 78.6692 904.319 77.0444 904.319 74.8588C904.319 73.004 904.153 71.5661 903.82 70.5452L899.38 80.1862C899.86 80.9339 900.52 81.3077 901.36 81.3077Z" fill="url(#paint73_linear_175_1868)"/>
<path d="M901.36 91.8947C902.786 91.8947 903.866 92.5489 904.599 93.8574C905.346 95.1515 905.719 97.0351 905.719 99.5083C905.719 101.981 905.346 103.872 904.599 105.181C903.866 106.489 902.786 107.143 901.36 107.143C899.946 107.143 898.867 106.489 898.12 105.181C897.373 103.872 897 101.981 897 99.5083C897 97.0495 897.373 95.1659 898.12 93.8574C898.867 92.5489 899.946 91.8947 901.36 91.8947ZM898.42 99.5083C898.42 101.262 898.567 102.636 898.86 103.628L903.3 94.0731C902.833 93.3973 902.186 93.0594 901.36 93.0594C900.44 93.0594 899.72 93.5914 899.2 94.6554C898.68 95.7051 898.42 97.3227 898.42 99.5083ZM901.36 105.957C902.293 105.957 903.02 105.432 903.54 104.383C904.06 103.319 904.319 101.694 904.319 99.5083C904.319 97.6534 904.153 96.2155 903.82 95.1946L899.38 104.836C899.86 105.583 900.52 105.957 901.36 105.957Z" fill="url(#paint74_linear_175_1868)"/>
<path d="M902.56 130.434H905.499V131.577H897.88V130.434H901.28V118.313L898.04 120.405L897.48 119.434L901.48 116.76H902.56V130.434Z" fill="url(#paint75_linear_175_1868)"/>
<path d="M901.36 141.194C902.786 141.194 903.866 141.848 904.599 143.156C905.346 144.45 905.719 146.334 905.719 148.807C905.719 151.28 905.346 153.171 904.599 154.48C903.866 155.788 902.786 156.442 901.36 156.442C899.946 156.442 898.867 155.788 898.12 154.48C897.373 153.171 897 151.28 897 148.807C897 146.348 897.373 144.465 898.12 143.156C898.867 141.848 899.946 141.194 901.36 141.194ZM898.42 148.807C898.42 150.561 898.567 151.935 898.86 152.927L903.3 143.372C902.833 142.696 902.186 142.358 901.36 142.358C900.44 142.358 899.72 142.89 899.2 143.954C898.68 145.004 898.42 146.622 898.42 148.807ZM901.36 155.256C902.293 155.256 903.02 154.731 903.54 153.682C904.06 152.618 904.319 150.993 904.319 148.807C904.319 146.952 904.153 145.514 903.82 144.494L899.38 154.135C899.86 154.882 900.52 155.256 901.36 155.256Z" fill="url(#paint76_linear_175_1868)"/>
<path d="M902.56 179.733H905.499V180.876H897.88V179.733H901.28V167.612L898.04 169.704L897.48 168.733L901.48 166.059H902.56V179.733Z" fill="url(#paint77_linear_175_1868)"/>
<path d="M902.56 204.382H905.499V205.526H897.88V204.382H901.28V192.261L898.04 194.353L897.48 193.383L901.48 190.708H902.56V204.382Z" fill="url(#paint78_linear_175_1868)"/>
<path d="M939.7 31.8363H942.64V32.9794H935.02V31.8363H938.42V19.7149L935.18 21.807L934.62 20.8365L938.62 18.162H939.7V31.8363Z" fill="url(#paint79_linear_175_1868)"/>
<path d="M938.5 42.5958C939.927 42.5958 941.006 43.25 941.74 44.5585C942.486 45.8526 942.86 47.7362 942.86 50.2094C942.86 52.6825 942.486 54.5734 941.74 55.8818C941.006 57.1903 939.927 57.8445 938.5 57.8445C937.087 57.8445 936.007 57.1903 935.26 55.8818C934.514 54.5734 934.14 52.6825 934.14 50.2094C934.14 47.7506 934.514 45.867 935.26 44.5585C936.007 43.25 937.087 42.5958 938.5 42.5958ZM935.56 50.2094C935.56 51.9636 935.707 53.3368 936 54.3289L940.44 44.7742C939.973 44.0984 939.327 43.7605 938.5 43.7605C937.58 43.7605 936.86 44.2925 936.34 45.3565C935.82 46.4062 935.56 48.0238 935.56 50.2094ZM938.5 56.6583C939.433 56.6583 940.16 56.1335 940.68 55.0838C941.2 54.0198 941.46 52.395 941.46 50.2094C941.46 48.3545 941.293 46.9166 940.96 45.8957L936.52 55.5367C937 56.2844 937.66 56.6583 938.5 56.6583Z" fill="url(#paint80_linear_175_1868)"/>
<path d="M939.7 81.1352H942.64V82.2783H935.02V81.1352H938.42V69.0138L935.18 71.1059L934.62 70.1354L938.62 67.4609H939.7V81.1352Z" fill="url(#paint81_linear_175_1868)"/>
<path d="M939.7 105.785H942.64V106.928H935.02V105.785H938.42V93.6633L935.18 95.7554L934.62 94.7848L938.62 92.1104H939.7V105.785Z" fill="url(#paint82_linear_175_1868)"/>
<path d="M938.5 116.544C939.927 116.544 941.006 117.198 941.74 118.507C942.486 119.801 942.86 121.685 942.86 124.158C942.86 126.631 942.486 128.522 941.74 129.83C941.006 131.139 939.927 131.793 938.5 131.793C937.087 131.793 936.007 131.139 935.26 129.83C934.514 128.522 934.14 126.631 934.14 124.158C934.14 121.699 934.514 119.815 935.26 118.507C936.007 117.198 937.087 116.544 938.5 116.544ZM935.56 124.158C935.56 125.912 935.707 127.285 936 128.277L940.44 118.723C939.973 118.047 939.327 117.709 938.5 117.709C937.58 117.709 936.86 118.241 936.34 119.305C935.82 120.355 935.56 121.972 935.56 124.158ZM938.5 130.607C939.433 130.607 940.16 130.082 940.68 129.032C941.2 127.968 941.46 126.343 941.46 124.158C941.46 122.303 941.293 120.865 940.96 119.844L936.52 129.485C937 130.233 937.66 130.607 938.5 130.607Z" fill="url(#paint83_linear_175_1868)"/>
<path d="M939.7 155.084H942.64V156.227H935.02V155.084H938.42V142.962L935.18 145.054L934.62 144.084L938.62 141.409H939.7V155.084Z" fill="url(#paint84_linear_175_1868)"/>
<path d="M939.7 179.733H942.64V180.876H935.02V179.733H938.42V167.612L935.18 169.704L934.62 168.733L938.62 166.059H939.7V179.733Z" fill="url(#paint85_linear_175_1868)"/>
<path d="M938.5 190.492C939.927 190.492 941.006 191.147 941.74 192.455C942.486 193.749 942.86 195.633 942.86 198.106C942.86 200.579 942.486 202.47 941.74 203.779C941.006 205.087 939.927 205.741 938.5 205.741C937.087 205.741 936.007 205.087 935.26 203.779C934.514 202.47 934.14 200.579 934.14 198.106C934.14 195.647 934.514 193.764 935.26 192.455C936.007 191.147 937.087 190.492 938.5 190.492ZM935.56 198.106C935.56 199.86 935.707 201.233 936 202.226L940.44 192.671C939.973 191.995 939.327 191.657 938.5 191.657C937.58 191.657 936.86 192.189 936.34 193.253C935.82 194.303 935.56 195.921 935.56 198.106ZM938.5 204.555C939.433 204.555 940.16 204.03 940.68 202.981C941.2 201.916 941.46 200.292 941.46 198.106C941.46 196.251 941.293 194.813 940.96 193.792L936.52 203.433C937 204.181 937.66 204.555 938.5 204.555Z" fill="url(#paint86_linear_175_1868)"/>
<path d="M939.7 229.032H942.64V230.175H935.02V229.032H938.42V216.911L935.18 219.003L934.62 218.032L938.62 215.358H939.7V229.032Z" fill="url(#paint87_linear_175_1868)"/>
<path d="M938.5 239.791C939.927 239.791 941.006 240.446 941.74 241.754C942.486 243.048 942.86 244.932 942.86 247.405C942.86 249.878 942.486 251.769 941.74 253.077C941.006 254.386 939.927 255.04 938.5 255.04C937.087 255.04 936.007 254.386 935.26 253.077C934.514 251.769 934.14 249.878 934.14 247.405C934.14 244.946 934.514 243.063 935.26 241.754C936.007 240.446 937.087 239.791 938.5 239.791ZM935.56 247.405C935.56 249.159 935.707 250.532 936 251.525L940.44 241.97C939.973 241.294 939.327 240.956 938.5 240.956C937.58 240.956 936.86 241.488 936.34 242.552C935.82 243.602 935.56 245.219 935.56 247.405ZM938.5 253.854C939.433 253.854 940.16 253.329 940.68 252.279C941.2 251.215 941.46 249.591 941.46 247.405C941.46 245.55 941.293 244.112 940.96 243.091L936.52 252.732C937 253.48 937.66 253.854 938.5 253.854Z" fill="url(#paint88_linear_175_1868)"/>
<path d="M975.64 17.9463C977.067 17.9463 978.147 18.6006 978.88 19.909C979.627 21.2031 980 23.0868 980 25.5599C980 28.0331 979.627 29.9239 978.88 31.2324C978.147 32.5409 977.067 33.1951 975.64 33.1951C974.227 33.1951 973.147 32.5409 972.401 31.2324C971.654 29.9239 971.281 28.0331 971.281 25.5599C971.281 23.1011 971.654 21.2175 972.401 19.909C973.147 18.6006 974.227 17.9463 975.64 17.9463ZM972.701 25.5599C972.701 27.3141 972.847 28.6873 973.14 29.6795L977.58 20.1247C977.114 19.4489 976.467 19.111 975.64 19.111C974.72 19.111 974 19.643 973.48 20.7071C972.96 21.7567 972.701 23.3743 972.701 25.5599ZM975.64 32.0088C976.574 32.0088 977.3 31.484 977.82 30.4344C978.34 29.3703 978.6 27.7455 978.6 25.5599C978.6 23.7051 978.433 22.2672 978.1 21.2463L973.66 30.8873C974.14 31.635 974.8 32.0088 975.64 32.0088Z" fill="url(#paint89_linear_175_1868)"/>
<path d="M976.84 56.4857H979.78V57.6289H972.161V56.4857H975.56V44.3644L972.321 46.4565L971.761 45.4859L975.76 42.8115H976.84V56.4857Z" fill="url(#paint90_linear_175_1868)"/>
<path d="M976.84 81.1352H979.78V82.2783H972.161V81.1352H975.56V69.0138L972.321 71.1059L971.761 70.1354L975.76 67.4609H976.84V81.1352Z" fill="url(#paint91_linear_175_1868)"/>
<path d="M975.64 91.8947C977.067 91.8947 978.147 92.5489 978.88 93.8574C979.627 95.1515 980 97.0351 980 99.5083C980 101.981 979.627 103.872 978.88 105.181C978.147 106.489 977.067 107.143 975.64 107.143C974.227 107.143 973.147 106.489 972.401 105.181C971.654 103.872 971.281 101.981 971.281 99.5083C971.281 97.0495 971.654 95.1659 972.401 93.8574C973.147 92.5489 974.227 91.8947 975.64 91.8947ZM972.701 99.5083C972.701 101.262 972.847 102.636 973.14 103.628L977.58 94.0731C977.114 93.3973 976.467 93.0594 975.64 93.0594C974.72 93.0594 974 93.5914 973.48 94.6554C972.96 95.7051 972.701 97.3227 972.701 99.5083ZM975.64 105.957C976.574 105.957 977.3 105.432 977.82 104.383C978.34 103.319 978.6 101.694 978.6 99.5083C978.6 97.6534 978.433 96.2155 978.1 95.1946L973.66 104.836C974.14 105.583 974.8 105.957 975.64 105.957Z" fill="url(#paint92_linear_175_1868)"/>
<path d="M975.64 116.544C977.067 116.544 978.147 117.198 978.88 118.507C979.627 119.801 980 121.685 980 124.158C980 126.631 979.627 128.522 978.88 129.83C978.147 131.139 977.067 131.793 975.64 131.793C974.227 131.793 973.147 131.139 972.401 129.83C971.654 128.522 971.281 126.631 971.281 124.158C971.281 121.699 971.654 119.815 972.401 118.507C973.147 117.198 974.227 116.544 975.64 116.544ZM972.701 124.158C972.701 125.912 972.847 127.285 973.14 128.277L977.58 118.723C977.114 118.047 976.467 117.709 975.64 117.709C974.72 117.709 974 118.241 973.48 119.305C972.96 120.355 972.701 121.972 972.701 124.158ZM975.64 130.607C976.574 130.607 977.3 130.082 977.82 129.032C978.34 127.968 978.6 126.343 978.6 124.158C978.6 122.303 978.433 120.865 978.1 119.844L973.66 129.485C974.14 130.233 974.8 130.607 975.64 130.607Z" fill="url(#paint93_linear_175_1868)"/>
</g>
<defs>
<filter id="filter0_f_175_1868" x="-558.19" y="-716.19" width="2141.38" height="1557.4" filterUnits="userSpaceOnUse" color-interpolation-filters="sRGB">
<feFlood flood-opacity="0" result="BackgroundImageFix"/>
<feBlend mode="normal" in="SourceGraphic" in2="BackgroundImageFix" result="shape"/>
<feGaussianBlur stdDeviation="200.095" result="effect1_foregroundBlur_175_1868"/>
</filter>
<linearGradient id="paint0_linear_175_1868" x1="52.5" y1="317.734" x2="52.5" y2="654.479" gradientUnits="userSpaceOnUse">
<stop stop-color="#F7DD43"/>
<stop offset="1" stop-color="#F7DD43" stop-opacity="0"/>
</linearGradient>
<linearGradient id="paint1_linear_175_1868" x1="52.5" y1="317.734" x2="52.5" y2="654.479" gradientUnits="userSpaceOnUse">
<stop stop-color="#F7DD43"/>
<stop offset="1" stop-color="#F7DD43" stop-opacity="0"/>
</linearGradient>
<linearGradient id="paint2_linear_175_1868" x1="52.5" y1="317.734" x2="52.5" y2="654.479" gradientUnits="userSpaceOnUse">
<stop stop-color="#F7DD43"/>
<stop offset="1" stop-color="#F7DD43" stop-opacity="0"/>
</linearGradient>
<linearGradient id="paint3_linear_175_1868" x1="52.5" y1="317.734" x2="52.5" y2="654.479" gradientUnits="userSpaceOnUse">
<stop stop-color="#F7DD43"/>
<stop offset="1" stop-color="#F7DD43" stop-opacity="0"/>
</linearGradient>
<linearGradient id="paint4_linear_175_1868" x1="52.5" y1="317.734" x2="52.5" y2="654.479" gradientUnits="userSpaceOnUse">
<stop stop-color="#F7DD43"/>
<stop offset="1" stop-color="#F7DD43" stop-opacity="0"/>
</linearGradient>
<linearGradient id="paint5_linear_175_1868" x1="52.5" y1="317.734" x2="52.5" y2="654.479" gradientUnits="userSpaceOnUse">
<stop stop-color="#F7DD43"/>
<stop offset="1" stop-color="#F7DD43" stop-opacity="0"/>
</linearGradient>
<linearGradient id="paint6_linear_175_1868" x1="52.5" y1="317.734" x2="52.5" y2="654.479" gradientUnits="userSpaceOnUse">
<stop stop-color="#F7DD43"/>
<stop offset="1" stop-color="#F7DD43" stop-opacity="0"/>
</linearGradient>
<linearGradient id="paint7_linear_175_1868" x1="52.5" y1="317.734" x2="52.5" y2="654.479" gradientUnits="userSpaceOnUse">
<stop stop-color="#F7DD43"/>
<stop offset="1" stop-color="#F7DD43" stop-opacity="0"/>
</linearGradient>
<linearGradient id="paint8_linear_175_1868" x1="52.5" y1="317.734" x2="52.5" y2="654.479" gradientUnits="userSpaceOnUse">
<stop stop-color="#F7DD43"/>
<stop offset="1" stop-color="#F7DD43" stop-opacity="0"/>
</linearGradient>
<linearGradient id="paint9_linear_175_1868" x1="52.5" y1="317.734" x2="52.5" y2="654.479" gradientUnits="userSpaceOnUse">
<stop stop-color="#F7DD43"/>
<stop offset="1" stop-color="#F7DD43" stop-opacity="0"/>
</linearGradient>
<linearGradient id="paint10_linear_175_1868" x1="52.5" y1="317.734" x2="52.5" y2="654.479" gradientUnits="userSpaceOnUse">
<stop stop-color="#F7DD43"/>
<stop offset="1" stop-color="#F7DD43" stop-opacity="0"/>
</linearGradient>
<linearGradient id="paint11_linear_175_1868" x1="52.5" y1="317.734" x2="52.5" y2="654.479" gradientUnits="userSpaceOnUse">
<stop stop-color="#F7DD43"/>
<stop offset="1" stop-color="#F7DD43" stop-opacity="0"/>
</linearGradient>
<linearGradient id="paint12_linear_175_1868" x1="52.5" y1="317.734" x2="52.5" y2="654.479" gradientUnits="userSpaceOnUse">
<stop stop-color="#F7DD43"/>
<stop offset="1" stop-color="#F7DD43" stop-opacity="0"/>
</linearGradient>
<linearGradient id="paint13_linear_175_1868" x1="52.5" y1="317.734" x2="52.5" y2="654.479" gradientUnits="userSpaceOnUse">
<stop stop-color="#F7DD43"/>
<stop offset="1" stop-color="#F7DD43" stop-opacity="0"/>
</linearGradient>
<linearGradient id="paint14_linear_175_1868" x1="52.5" y1="317.734" x2="52.5" y2="654.479" gradientUnits="userSpaceOnUse">
<stop stop-color="#F7DD43"/>
<stop offset="1" stop-color="#F7DD43" stop-opacity="0"/>
</linearGradient>
<linearGradient id="paint15_linear_175_1868" x1="52.5" y1="317.734" x2="52.5" y2="654.479" gradientUnits="userSpaceOnUse">
<stop stop-color="#F7DD43"/>
<stop offset="1" stop-color="#F7DD43" stop-opacity="0"/>
</linearGradient>
<linearGradient id="paint16_linear_175_1868" x1="52.5" y1="317.734" x2="52.5" y2="654.479" gradientUnits="userSpaceOnUse">
<stop stop-color="#F7DD43"/>
<stop offset="1" stop-color="#F7DD43" stop-opacity="0"/>
</linearGradient>
<linearGradient id="paint17_linear_175_1868" x1="52.5" y1="317.734" x2="52.5" y2="654.479" gradientUnits="userSpaceOnUse">
<stop stop-color="#F7DD43"/>
<stop offset="1" stop-color="#F7DD43" stop-opacity="0"/>
</linearGradient>
<linearGradient id="paint18_linear_175_1868" x1="52.5" y1="317.734" x2="52.5" y2="654.479" gradientUnits="userSpaceOnUse">
<stop stop-color="#F7DD43"/>
<stop offset="1" stop-color="#F7DD43" stop-opacity="0"/>
</linearGradient>
<linearGradient id="paint19_linear_175_1868" x1="52.5" y1="317.734" x2="52.5" y2="654.479" gradientUnits="userSpaceOnUse">
<stop stop-color="#F7DD43"/>
<stop offset="1" stop-color="#F7DD43" stop-opacity="0"/>
</linearGradient>
<linearGradient id="paint20_linear_175_1868" x1="52.5" y1="317.734" x2="52.5" y2="654.479" gradientUnits="userSpaceOnUse">
<stop stop-color="#F7DD43"/>
<stop offset="1" stop-color="#F7DD43" stop-opacity="0"/>
</linearGradient>
<linearGradient id="paint21_linear_175_1868" x1="52.5" y1="317.734" x2="52.5" y2="654.479" gradientUnits="userSpaceOnUse">
<stop stop-color="#F7DD43"/>
<stop offset="1" stop-color="#F7DD43" stop-opacity="0"/>
</linearGradient>
<linearGradient id="paint22_linear_175_1868" x1="52.5" y1="317.734" x2="52.5" y2="654.479" gradientUnits="userSpaceOnUse">
<stop stop-color="#F7DD43"/>
<stop offset="1" stop-color="#F7DD43" stop-opacity="0"/>
</linearGradient>
<linearGradient id="paint23_linear_175_1868" x1="52.5" y1="317.734" x2="52.5" y2="654.479" gradientUnits="userSpaceOnUse">
<stop stop-color="#F7DD43"/>
<stop offset="1" stop-color="#F7DD43" stop-opacity="0"/>
</linearGradient>
<linearGradient id="paint24_linear_175_1868" x1="52.5" y1="317.734" x2="52.5" y2="654.479" gradientUnits="userSpaceOnUse">
<stop stop-color="#F7DD43"/>
<stop offset="1" stop-color="#F7DD43" stop-opacity="0"/>
</linearGradient>
<linearGradient id="paint25_linear_175_1868" x1="52.5" y1="317.734" x2="52.5" y2="654.479" gradientUnits="userSpaceOnUse">
<stop stop-color="#F7DD43"/>
<stop offset="1" stop-color="#F7DD43" stop-opacity="0"/>
</linearGradient>
<linearGradient id="paint26_linear_175_1868" x1="52.5" y1="317.734" x2="52.5" y2="654.479" gradientUnits="userSpaceOnUse">
<stop stop-color="#F7DD43"/>
<stop offset="1" stop-color="#F7DD43" stop-opacity="0"/>
</linearGradient>
<linearGradient id="paint27_linear_175_1868" x1="52.5" y1="317.734" x2="52.5" y2="654.479" gradientUnits="userSpaceOnUse">
<stop stop-color="#F7DD43"/>
<stop offset="1" stop-color="#F7DD43" stop-opacity="0"/>
</linearGradient>
<linearGradient id="paint28_linear_175_1868" x1="52.5" y1="317.734" x2="52.5" y2="654.479" gradientUnits="userSpaceOnUse">
<stop stop-color="#F7DD43"/>
<stop offset="1" stop-color="#F7DD43" stop-opacity="0"/>
</linearGradient>
<linearGradient id="paint29_linear_175_1868" x1="52.5" y1="317.734" x2="52.5" y2="654.479" gradientUnits="userSpaceOnUse">
<stop stop-color="#F7DD43"/>
<stop offset="1" stop-color="#F7DD43" stop-opacity="0"/>
</linearGradient>
<linearGradient id="paint30_linear_175_1868" x1="52.5" y1="317.734" x2="52.5" y2="654.479" gradientUnits="userSpaceOnUse">
<stop stop-color="#F7DD43"/>
<stop offset="1" stop-color="#F7DD43" stop-opacity="0"/>
</linearGradient>
<linearGradient id="paint31_linear_175_1868" x1="52.5" y1="317.734" x2="52.5" y2="654.479" gradientUnits="userSpaceOnUse">
<stop stop-color="#F7DD43"/>
<stop offset="1" stop-color="#F7DD43" stop-opacity="0"/>
</linearGradient>
<linearGradient id="paint32_linear_175_1868" x1="52.5" y1="317.734" x2="52.5" y2="654.479" gradientUnits="userSpaceOnUse">
<stop stop-color="#F7DD43"/>
<stop offset="1" stop-color="#F7DD43" stop-opacity="0"/>
</linearGradient>
<linearGradient id="paint33_linear_175_1868" x1="52.5" y1="317.734" x2="52.5" y2="654.479" gradientUnits="userSpaceOnUse">
<stop stop-color="#F7DD43"/>
<stop offset="1" stop-color="#F7DD43" stop-opacity="0"/>
</linearGradient>
<linearGradient id="paint34_linear_175_1868" x1="52.5" y1="317.734" x2="52.5" y2="654.479" gradientUnits="userSpaceOnUse">
<stop stop-color="#F7DD43"/>
<stop offset="1" stop-color="#F7DD43" stop-opacity="0"/>
</linearGradient>
<linearGradient id="paint35_linear_175_1868" x1="52.5" y1="317.734" x2="52.5" y2="654.479" gradientUnits="userSpaceOnUse">
<stop stop-color="#F7DD43"/>
<stop offset="1" stop-color="#F7DD43" stop-opacity="0"/>
</linearGradient>
<linearGradient id="paint36_linear_175_1868" x1="52.5" y1="317.734" x2="52.5" y2="654.479" gradientUnits="userSpaceOnUse">
<stop stop-color="#F7DD43"/>
<stop offset="1" stop-color="#F7DD43" stop-opacity="0"/>
</linearGradient>
<linearGradient id="paint37_linear_175_1868" x1="52.5" y1="317.734" x2="52.5" y2="654.479" gradientUnits="userSpaceOnUse">
<stop stop-color="#F7DD43"/>
<stop offset="1" stop-color="#F7DD43" stop-opacity="0"/>
</linearGradient>
<linearGradient id="paint38_linear_175_1868" x1="52.5" y1="317.734" x2="52.5" y2="654.479" gradientUnits="userSpaceOnUse">
<stop stop-color="#F7DD43"/>
<stop offset="1" stop-color="#F7DD43" stop-opacity="0"/>
</linearGradient>
<linearGradient id="paint39_linear_175_1868" x1="52.5" y1="317.734" x2="52.5" y2="654.479" gradientUnits="userSpaceOnUse">
<stop stop-color="#F7DD43"/>
<stop offset="1" stop-color="#F7DD43" stop-opacity="0"/>
</linearGradient>
<linearGradient id="paint40_linear_175_1868" x1="52.5" y1="317.734" x2="52.5" y2="654.479" gradientUnits="userSpaceOnUse">
<stop stop-color="#F7DD43"/>
<stop offset="1" stop-color="#F7DD43" stop-opacity="0"/>
</linearGradient>
<linearGradient id="paint41_linear_175_1868" x1="52.5" y1="317.734" x2="52.5" y2="654.479" gradientUnits="userSpaceOnUse">
<stop stop-color="#F7DD43"/>
<stop offset="1" stop-color="#F7DD43" stop-opacity="0"/>
</linearGradient>
<linearGradient id="paint42_linear_175_1868" x1="52.5" y1="317.734" x2="52.5" y2="654.479" gradientUnits="userSpaceOnUse">
<stop stop-color="#F7DD43"/>
<stop offset="1" stop-color="#F7DD43" stop-opacity="0"/>
</linearGradient>
<linearGradient id="paint43_linear_175_1868" x1="52.5" y1="317.734" x2="52.5" y2="654.479" gradientUnits="userSpaceOnUse">
<stop stop-color="#F7DD43"/>
<stop offset="1" stop-color="#F7DD43" stop-opacity="0"/>
</linearGradient>
<linearGradient id="paint44_linear_175_1868" x1="52.5" y1="317.734" x2="52.5" y2="654.479" gradientUnits="userSpaceOnUse">
<stop stop-color="#F7DD43"/>
<stop offset="1" stop-color="#F7DD43" stop-opacity="0"/>
</linearGradient>
<linearGradient id="paint45_linear_175_1868" x1="52.5" y1="317.734" x2="52.5" y2="654.479" gradientUnits="userSpaceOnUse">
<stop stop-color="#F7DD43"/>
<stop offset="1" stop-color="#F7DD43" stop-opacity="0"/>
</linearGradient>
<linearGradient id="paint46_linear_175_1868" x1="52.5" y1="317.734" x2="52.5" y2="654.479" gradientUnits="userSpaceOnUse">
<stop stop-color="#F7DD43"/>
<stop offset="1" stop-color="#F7DD43" stop-opacity="0"/>
</linearGradient>
<linearGradient id="paint47_linear_175_1868" x1="938.5" y1="-6.70313" x2="938.5" y2="316.456" gradientUnits="userSpaceOnUse">
<stop stop-color="#F7DD43"/>
<stop offset="1" stop-color="#F7DD43" stop-opacity="0"/>
</linearGradient>
<linearGradient id="paint48_linear_175_1868" x1="938.5" y1="-6.70313" x2="938.5" y2="316.456" gradientUnits="userSpaceOnUse">
<stop stop-color="#F7DD43"/>
<stop offset="1" stop-color="#F7DD43" stop-opacity="0"/>
</linearGradient>
<linearGradient id="paint49_linear_175_1868" x1="938.5" y1="-6.70313" x2="938.5" y2="316.456" gradientUnits="userSpaceOnUse">
<stop stop-color="#F7DD43"/>
<stop offset="1" stop-color="#F7DD43" stop-opacity="0"/>
</linearGradient>
<linearGradient id="paint50_linear_175_1868" x1="938.5" y1="-6.70313" x2="938.5" y2="316.456" gradientUnits="userSpaceOnUse">
<stop stop-color="#F7DD43"/>
<stop offset="1" stop-color="#F7DD43" stop-opacity="0"/>
</linearGradient>
<linearGradient id="paint51_linear_175_1868" x1="938.5" y1="-6.70313" x2="938.5" y2="316.456" gradientUnits="userSpaceOnUse">
<stop stop-color="#F7DD43"/>
<stop offset="1" stop-color="#F7DD43" stop-opacity="0"/>
</linearGradient>
<linearGradient id="paint52_linear_175_1868" x1="938.5" y1="-6.70313" x2="938.5" y2="316.456" gradientUnits="userSpaceOnUse">
<stop stop-color="#F7DD43"/>
<stop offset="1" stop-color="#F7DD43" stop-opacity="0"/>
</linearGradient>
<linearGradient id="paint53_linear_175_1868" x1="938.5" y1="-6.70313" x2="938.5" y2="316.456" gradientUnits="userSpaceOnUse">
<stop stop-color="#F7DD43"/>
<stop offset="1" stop-color="#F7DD43" stop-opacity="0"/>
</linearGradient>
<linearGradient id="paint54_linear_175_1868" x1="938.5" y1="-6.70313" x2="938.5" y2="316.456" gradientUnits="userSpaceOnUse">
<stop stop-color="#F7DD43"/>
<stop offset="1" stop-color="#F7DD43" stop-opacity="0"/>
</linearGradient>
<linearGradient id="paint55_linear_175_1868" x1="938.5" y1="-6.70313" x2="938.5" y2="316.456" gradientUnits="userSpaceOnUse">
<stop stop-color="#F7DD43"/>
<stop offset="1" stop-color="#F7DD43" stop-opacity="0"/>
</linearGradient>
<linearGradient id="paint56_linear_175_1868" x1="938.5" y1="-6.70313" x2="938.5" y2="316.456" gradientUnits="userSpaceOnUse">
<stop stop-color="#F7DD43"/>
<stop offset="1" stop-color="#F7DD43" stop-opacity="0"/>
</linearGradient>
<linearGradient id="paint57_linear_175_1868" x1="938.5" y1="-6.70313" x2="938.5" y2="316.456" gradientUnits="userSpaceOnUse">
<stop stop-color="#F7DD43"/>
<stop offset="1" stop-color="#F7DD43" stop-opacity="0"/>
</linearGradient>
<linearGradient id="paint58_linear_175_1868" x1="938.5" y1="-6.70313" x2="938.5" y2="316.456" gradientUnits="userSpaceOnUse">
<stop stop-color="#F7DD43"/>
<stop offset="1" stop-color="#F7DD43" stop-opacity="0"/>
</linearGradient>
<linearGradient id="paint59_linear_175_1868" x1="938.5" y1="-6.70313" x2="938.5" y2="316.456" gradientUnits="userSpaceOnUse">
<stop stop-color="#F7DD43"/>
<stop offset="1" stop-color="#F7DD43" stop-opacity="0"/>
</linearGradient>
<linearGradient id="paint60_linear_175_1868" x1="938.5" y1="-6.70313" x2="938.5" y2="316.456" gradientUnits="userSpaceOnUse">
<stop stop-color="#F7DD43"/>
<stop offset="1" stop-color="#F7DD43" stop-opacity="0"/>
</linearGradient>
<linearGradient id="paint61_linear_175_1868" x1="938.5" y1="-6.70313" x2="938.5" y2="316.456" gradientUnits="userSpaceOnUse">
<stop stop-color="#F7DD43"/>
<stop offset="1" stop-color="#F7DD43" stop-opacity="0"/>
</linearGradient>
<linearGradient id="paint62_linear_175_1868" x1="938.5" y1="-6.70313" x2="938.5" y2="316.456" gradientUnits="userSpaceOnUse">
<stop stop-color="#F7DD43"/>
<stop offset="1" stop-color="#F7DD43" stop-opacity="0"/>
</linearGradient>
<linearGradient id="paint63_linear_175_1868" x1="938.5" y1="-6.70313" x2="938.5" y2="316.456" gradientUnits="userSpaceOnUse">
<stop stop-color="#F7DD43"/>
<stop offset="1" stop-color="#F7DD43" stop-opacity="0"/>
</linearGradient>
<linearGradient id="paint64_linear_175_1868" x1="938.5" y1="-6.70313" x2="938.5" y2="316.456" gradientUnits="userSpaceOnUse">
<stop stop-color="#F7DD43"/>
<stop offset="1" stop-color="#F7DD43" stop-opacity="0"/>
</linearGradient>
<linearGradient id="paint65_linear_175_1868" x1="938.5" y1="-6.70313" x2="938.5" y2="316.456" gradientUnits="userSpaceOnUse">
<stop stop-color="#F7DD43"/>
<stop offset="1" stop-color="#F7DD43" stop-opacity="0"/>
</linearGradient>
<linearGradient id="paint66_linear_175_1868" x1="938.5" y1="-6.70313" x2="938.5" y2="316.456" gradientUnits="userSpaceOnUse">
<stop stop-color="#F7DD43"/>
<stop offset="1" stop-color="#F7DD43" stop-opacity="0"/>
</linearGradient>
<linearGradient id="paint67_linear_175_1868" x1="938.5" y1="-6.70313" x2="938.5" y2="316.456" gradientUnits="userSpaceOnUse">
<stop stop-color="#F7DD43"/>
<stop offset="1" stop-color="#F7DD43" stop-opacity="0"/>
</linearGradient>
<linearGradient id="paint68_linear_175_1868" x1="938.5" y1="-6.70313" x2="938.5" y2="316.456" gradientUnits="userSpaceOnUse">
<stop stop-color="#F7DD43"/>
<stop offset="1" stop-color="#F7DD43" stop-opacity="0"/>
</linearGradient>
<linearGradient id="paint69_linear_175_1868" x1="938.5" y1="-6.70313" x2="938.5" y2="316.456" gradientUnits="userSpaceOnUse">
<stop stop-color="#F7DD43"/>
<stop offset="1" stop-color="#F7DD43" stop-opacity="0"/>
</linearGradient>
<linearGradient id="paint70_linear_175_1868" x1="938.5" y1="-6.70313" x2="938.5" y2="316.456" gradientUnits="userSpaceOnUse">
<stop stop-color="#F7DD43"/>
<stop offset="1" stop-color="#F7DD43" stop-opacity="0"/>
</linearGradient>
<linearGradient id="paint71_linear_175_1868" x1="938.5" y1="-6.70313" x2="938.5" y2="316.456" gradientUnits="userSpaceOnUse">
<stop stop-color="#F7DD43"/>
<stop offset="1" stop-color="#F7DD43" stop-opacity="0"/>
</linearGradient>
<linearGradient id="paint72_linear_175_1868" x1="938.5" y1="-6.70313" x2="938.5" y2="316.456" gradientUnits="userSpaceOnUse">
<stop stop-color="#F7DD43"/>
<stop offset="1" stop-color="#F7DD43" stop-opacity="0"/>
</linearGradient>
<linearGradient id="paint73_linear_175_1868" x1="938.5" y1="-6.70313" x2="938.5" y2="316.456" gradientUnits="userSpaceOnUse">
<stop stop-color="#F7DD43"/>
<stop offset="1" stop-color="#F7DD43" stop-opacity="0"/>
</linearGradient>
<linearGradient id="paint74_linear_175_1868" x1="938.5" y1="-6.70313" x2="938.5" y2="316.456" gradientUnits="userSpaceOnUse">
<stop stop-color="#F7DD43"/>
<stop offset="1" stop-color="#F7DD43" stop-opacity="0"/>
</linearGradient>
<linearGradient id="paint75_linear_175_1868" x1="938.5" y1="-6.70313" x2="938.5" y2="316.456" gradientUnits="userSpaceOnUse">
<stop stop-color="#F7DD43"/>
<stop offset="1" stop-color="#F7DD43" stop-opacity="0"/>
</linearGradient>
<linearGradient id="paint76_linear_175_1868" x1="938.5" y1="-6.70313" x2="938.5" y2="316.456" gradientUnits="userSpaceOnUse">
<stop stop-color="#F7DD43"/>
<stop offset="1" stop-color="#F7DD43" stop-opacity="0"/>
</linearGradient>
<linearGradient id="paint77_linear_175_1868" x1="938.5" y1="-6.70313" x2="938.5" y2="316.456" gradientUnits="userSpaceOnUse">
<stop stop-color="#F7DD43"/>
<stop offset="1" stop-color="#F7DD43" stop-opacity="0"/>
</linearGradient>
<linearGradient id="paint78_linear_175_1868" x1="938.5" y1="-6.70313" x2="938.5" y2="316.456" gradientUnits="userSpaceOnUse">
<stop stop-color="#F7DD43"/>
<stop offset="1" stop-color="#F7DD43" stop-opacity="0"/>
</linearGradient>
<linearGradient id="paint79_linear_175_1868" x1="938.5" y1="-6.70313" x2="938.5" y2="316.456" gradientUnits="userSpaceOnUse">
<stop stop-color="#F7DD43"/>
<stop offset="1" stop-color="#F7DD43" stop-opacity="0"/>
</linearGradient>
<linearGradient id="paint80_linear_175_1868" x1="938.5" y1="-6.70313" x2="938.5" y2="316.456" gradientUnits="userSpaceOnUse">
<stop stop-color="#F7DD43"/>
<stop offset="1" stop-color="#F7DD43" stop-opacity="0"/>
</linearGradient>
<linearGradient id="paint81_linear_175_1868" x1="938.5" y1="-6.70313" x2="938.5" y2="316.456" gradientUnits="userSpaceOnUse">
<stop stop-color="#F7DD43"/>
<stop offset="1" stop-color="#F7DD43" stop-opacity="0"/>
</linearGradient>
<linearGradient id="paint82_linear_175_1868" x1="938.5" y1="-6.70313" x2="938.5" y2="316.456" gradientUnits="userSpaceOnUse">
<stop stop-color="#F7DD43"/>
<stop offset="1" stop-color="#F7DD43" stop-opacity="0"/>
</linearGradient>
<linearGradient id="paint83_linear_175_1868" x1="938.5" y1="-6.70313" x2="938.5" y2="316.456" gradientUnits="userSpaceOnUse">
<stop stop-color="#F7DD43"/>
<stop offset="1" stop-color="#F7DD43" stop-opacity="0"/>
</linearGradient>
<linearGradient id="paint84_linear_175_1868" x1="938.5" y1="-6.70313" x2="938.5" y2="316.456" gradientUnits="userSpaceOnUse">
<stop stop-color="#F7DD43"/>
<stop offset="1" stop-color="#F7DD43" stop-opacity="0"/>
</linearGradient>
<linearGradient id="paint85_linear_175_1868" x1="938.5" y1="-6.70313" x2="938.5" y2="316.456" gradientUnits="userSpaceOnUse">
<stop stop-color="#F7DD43"/>
<stop offset="1" stop-color="#F7DD43" stop-opacity="0"/>
</linearGradient>
<linearGradient id="paint86_linear_175_1868" x1="938.5" y1="-6.70313" x2="938.5" y2="316.456" gradientUnits="userSpaceOnUse">
<stop stop-color="#F7DD43"/>
<stop offset="1" stop-color="#F7DD43" stop-opacity="0"/>
</linearGradient>
<linearGradient id="paint87_linear_175_1868" x1="938.5" y1="-6.70313" x2="938.5" y2="316.456" gradientUnits="userSpaceOnUse">
<stop stop-color="#F7DD43"/>
<stop offset="1" stop-color="#F7DD43" stop-opacity="0"/>
</linearGradient>
<linearGradient id="paint88_linear_175_1868" x1="938.5" y1="-6.70313" x2="938.5" y2="316.456" gradientUnits="userSpaceOnUse">
<stop stop-color="#F7DD43"/>
<stop offset="1" stop-color="#F7DD43" stop-opacity="0"/>
</linearGradient>
<linearGradient id="paint89_linear_175_1868" x1="938.5" y1="-6.70313" x2="938.5" y2="316.456" gradientUnits="userSpaceOnUse">
<stop stop-color="#F7DD43"/>
<stop offset="1" stop-color="#F7DD43" stop-opacity="0"/>
</linearGradient>
<linearGradient id="paint90_linear_175_1868" x1="938.5" y1="-6.70313" x2="938.5" y2="316.456" gradientUnits="userSpaceOnUse">
<stop stop-color="#F7DD43"/>
<stop offset="1" stop-color="#F7DD43" stop-opacity="0"/>
</linearGradient>
<linearGradient id="paint91_linear_175_1868" x1="938.5" y1="-6.70313" x2="938.5" y2="316.456" gradientUnits="userSpaceOnUse">
<stop stop-color="#F7DD43"/>
<stop offset="1" stop-color="#F7DD43" stop-opacity="0"/>
</linearGradient>
<linearGradient id="paint92_linear_175_1868" x1="938.5" y1="-6.70313" x2="938.5" y2="316.456" gradientUnits="userSpaceOnUse">
<stop stop-color="#F7DD43"/>
<stop offset="1" stop-color="#F7DD43" stop-opacity="0"/>
</linearGradient>
<linearGradient id="paint93_linear_175_1868" x1="938.5" y1="-6.70313" x2="938.5" y2="316.456" gradientUnits="userSpaceOnUse">
<stop stop-color="#F7DD43"/>
<stop offset="1" stop-color="#F7DD43" stop-opacity="0"/>
</linearGradient>
</defs>
</svg>
