<svg width="1024" height="753" viewBox="0 0 1024 753" fill="none" xmlns="http://www.w3.org/2000/svg">
<g opacity="0.2" filter="url(#filter0_f_175_1868)">
<ellipse cx="358.5" cy="69" rx="670.5" ry="350" fill="#B3A659"/>
</g>
<g opacity="0.6">
<path d="M765.93 5C767.356 5 768.436 5.60496 769.17 6.81488C769.916 8.0115 770.29 9.75325 770.29 12.0401C770.29 14.327 769.916 16.0754 769.17 17.2853C768.436 18.4952 767.356 19.1002 765.93 19.1002C764.517 19.1002 763.437 18.4952 762.69 17.2853C761.943 16.0754 761.57 14.327 761.57 12.0401C761.57 9.76654 761.943 8.02479 762.69 6.81488C763.437 5.60496 764.517 5 765.93 5ZM762.99 12.0401C762.99 13.6622 763.137 14.932 763.43 15.8494L767.87 7.01431C767.403 6.38941 766.756 6.07696 765.93 6.07696C765.01 6.07696 764.29 6.56891 763.77 7.55279C763.25 8.52339 762.99 10.0192 762.99 12.0401ZM765.93 18.0033C766.863 18.0033 767.59 17.518 768.11 16.5474C768.63 15.5635 768.89 14.0611 768.89 12.0401C768.89 10.325 768.723 8.99539 768.39 8.05139L763.95 16.9662C764.43 17.6576 765.09 18.0033 765.93 18.0033Z" fill="url(#paint0_linear_175_1868)"/>
<path d="M767.13 40.6365H770.07V41.6936H762.45V40.6365H765.85V29.4282L762.61 31.3627L762.05 30.4653L766.05 27.9922H767.13V40.6365Z" fill="url(#paint1_linear_175_1868)"/>
<path d="M765.93 50.5856C767.356 50.5856 768.436 51.1906 769.17 52.4005C769.916 53.5971 770.29 55.3389 770.29 57.6257C770.29 59.9126 769.916 61.661 769.17 62.8709C768.436 64.0808 767.356 64.6858 765.93 64.6858C764.517 64.6858 763.437 64.0808 762.69 62.8709C761.943 61.661 761.57 59.9126 761.57 57.6257C761.57 55.3522 761.943 53.6104 762.69 52.4005C763.437 51.1906 764.517 50.5856 765.93 50.5856ZM762.99 57.6257C762.99 59.2478 763.137 60.5176 763.43 61.435L767.87 52.5999C767.403 51.975 766.756 51.6626 765.93 51.6626C765.01 51.6626 764.29 52.1545 763.77 53.1384C763.25 54.109 762.99 55.6048 762.99 57.6257ZM765.93 63.5889C766.863 63.5889 767.59 63.1036 768.11 62.133C768.63 61.1491 768.89 59.6467 768.89 57.6257C768.89 55.9106 768.723 54.581 768.39 53.637L763.95 62.5518C764.43 63.2432 765.09 63.5889 765.93 63.5889Z" fill="url(#paint2_linear_175_1868)"/>
<path d="M767.13 86.2221H770.07V87.2792H762.45V86.2221H765.85V75.0138L762.61 76.9483L762.05 76.0509L766.05 73.5778H767.13V86.2221Z" fill="url(#paint3_linear_175_1868)"/>
<path d="M767.13 109.015H770.07V110.072H762.45V109.015H765.85V97.8066L762.61 99.7411L762.05 98.8437L766.05 96.3706H767.13V109.015Z" fill="url(#paint4_linear_175_1868)"/>
<path d="M765.93 118.964C767.356 118.964 768.436 119.569 769.17 120.779C769.916 121.976 770.29 123.717 770.29 126.004C770.29 128.291 769.916 130.039 769.17 131.249C768.436 132.459 767.356 133.064 765.93 133.064C764.517 133.064 763.437 132.459 762.69 131.249C761.943 130.039 761.57 128.291 761.57 126.004C761.57 123.731 761.943 121.989 762.69 120.779C763.437 119.569 764.517 118.964 765.93 118.964ZM762.99 126.004C762.99 127.626 763.137 128.896 763.43 129.813L767.87 120.978C767.403 120.353 766.756 120.041 765.93 120.041C765.01 120.041 764.29 120.533 763.77 121.517C763.25 122.487 762.99 123.983 762.99 126.004ZM765.93 131.967C766.863 131.967 767.59 131.482 768.11 130.511C768.63 129.528 768.89 128.025 768.89 126.004C768.89 124.289 768.723 122.959 768.39 122.015L763.95 130.93C764.43 131.622 765.09 131.967 765.93 131.967Z" fill="url(#paint5_linear_175_1868)"/>
<path d="M767.13 154.601H770.07V155.658H762.45V154.601H765.85V143.392L762.61 145.327L762.05 144.429L766.05 141.956H767.13V154.601Z" fill="url(#paint6_linear_175_1868)"/>
<path d="M765.93 164.55C767.356 164.55 768.436 165.155 769.17 166.365C769.916 167.561 770.29 169.303 770.29 171.59C770.29 173.877 769.916 175.625 769.17 176.835C768.436 178.045 767.356 178.65 765.93 178.65C764.517 178.65 763.437 178.045 762.69 176.835C761.943 175.625 761.57 173.877 761.57 171.59C761.57 169.316 761.943 167.574 762.69 166.365C763.437 165.155 764.517 164.55 765.93 164.55ZM762.99 171.59C762.99 173.212 763.137 174.482 763.43 175.399L767.87 166.564C767.403 165.939 766.756 165.627 765.93 165.627C765.01 165.627 764.29 166.119 763.77 167.102C763.25 168.073 762.99 169.569 762.99 171.59ZM765.93 177.553C766.863 177.553 767.59 177.068 768.11 176.097C768.63 175.113 768.89 173.611 768.89 171.59C768.89 169.875 768.723 168.545 768.39 167.601L763.95 176.516C764.43 177.207 765.09 177.553 765.93 177.553Z" fill="url(#paint7_linear_175_1868)"/>
<path d="M765.93 187.342C767.356 187.342 768.436 187.947 769.17 189.157C769.916 190.354 770.29 192.096 770.29 194.383C770.29 196.669 769.916 198.418 769.17 199.628C768.436 200.838 767.356 201.443 765.93 201.443C764.517 201.443 763.437 200.838 762.69 199.628C761.943 198.418 761.57 196.669 761.57 194.383C761.57 192.109 761.943 190.367 762.69 189.157C763.437 187.947 764.517 187.342 765.93 187.342ZM762.99 194.383C762.99 196.005 763.137 197.274 763.43 198.192L767.87 189.357C767.403 188.732 766.756 188.419 765.93 188.419C765.01 188.419 764.29 188.911 763.77 189.895C763.25 190.866 762.99 192.362 762.99 194.383ZM765.93 200.346C766.863 200.346 767.59 199.86 768.11 198.89C768.63 197.906 768.89 196.404 768.89 194.383C768.89 192.667 768.723 191.338 768.39 190.394L763.95 199.309C764.43 200 765.09 200.346 765.93 200.346Z" fill="url(#paint8_linear_175_1868)"/>
<path d="M767.13 222.979H770.07V224.036H762.45V222.979H765.85V211.771L762.61 213.705L762.05 212.808L766.05 210.335H767.13V222.979Z" fill="url(#paint9_linear_175_1868)"/>
<path d="M765.93 232.928C767.356 232.928 768.436 233.533 769.17 234.743C769.916 235.94 770.29 237.681 770.29 239.968C770.29 242.255 769.916 244.003 769.17 245.213C768.436 246.423 767.356 247.028 765.93 247.028C764.517 247.028 763.437 246.423 762.69 245.213C761.943 244.003 761.57 242.255 761.57 239.968C761.57 237.695 761.943 235.953 762.69 234.743C763.437 233.533 764.517 232.928 765.93 232.928ZM762.99 239.968C762.99 241.59 763.137 242.86 763.43 243.777L767.87 234.942C767.403 234.317 766.756 234.005 765.93 234.005C765.01 234.005 764.29 234.497 763.77 235.481C763.25 236.451 762.99 237.947 762.99 239.968ZM765.93 245.931C766.863 245.931 767.59 245.446 768.11 244.475C768.63 243.492 768.89 241.989 768.89 239.968C768.89 238.253 768.723 236.923 768.39 235.979L763.95 244.894C764.43 245.586 765.09 245.931 765.93 245.931Z" fill="url(#paint10_linear_175_1868)"/>
<path d="M767.13 268.565H770.07V269.622H762.45V268.565H765.85V257.356L762.61 259.291L762.05 258.393L766.05 255.92H767.13V268.565Z" fill="url(#paint11_linear_175_1868)"/>
<path d="M767.13 291.357H770.07V292.414H762.45V291.357H765.85V280.149L762.61 282.084L762.05 281.186L766.05 278.713H767.13V291.357Z" fill="url(#paint12_linear_175_1868)"/>
<path d="M803.07 50.5856C804.497 50.5856 805.577 51.1906 806.31 52.4005C807.057 53.5971 807.43 55.3389 807.43 57.6257C807.43 59.9126 807.057 61.661 806.31 62.8709C805.577 64.0808 804.497 64.6858 803.07 64.6858C801.657 64.6858 800.577 64.0808 799.83 62.8709C799.084 61.661 798.71 59.9126 798.71 57.6257C798.71 55.3522 799.084 53.6104 799.83 52.4005C800.577 51.1906 801.657 50.5856 803.07 50.5856ZM800.13 57.6257C800.13 59.2478 800.277 60.5176 800.57 61.435L805.01 52.5999C804.543 51.975 803.897 51.6626 803.07 51.6626C802.15 51.6626 801.43 52.1545 800.91 53.1384C800.39 54.109 800.13 55.6048 800.13 57.6257ZM803.07 63.5889C804.003 63.5889 804.73 63.1036 805.25 62.133C805.77 61.1491 806.03 59.6467 806.03 57.6257C806.03 55.9106 805.863 54.581 805.53 53.637L801.09 62.5518C801.57 63.2432 802.23 63.5889 803.07 63.5889Z" fill="url(#paint13_linear_175_1868)"/>
<path d="M804.27 86.2221H807.21V87.2792H799.59V86.2221H802.99V75.0138L799.75 76.9483L799.19 76.0509L803.19 73.5778H804.27V86.2221Z" fill="url(#paint14_linear_175_1868)"/>
<path d="M803.07 96.1712C804.497 96.1712 805.577 96.7762 806.31 97.9861C807.057 99.1827 807.43 100.924 807.43 103.211C807.43 105.498 807.057 107.247 806.31 108.457C805.577 109.666 804.497 110.271 803.07 110.271C801.657 110.271 800.577 109.666 799.83 108.457C799.084 107.247 798.71 105.498 798.71 103.211C798.71 100.938 799.084 99.196 799.83 97.9861C800.577 96.7762 801.657 96.1712 803.07 96.1712ZM800.13 103.211C800.13 104.833 800.277 106.103 800.57 107.021L805.01 98.1855C804.543 97.5606 803.897 97.2482 803.07 97.2482C802.15 97.2482 801.43 97.7401 800.91 98.724C800.39 99.6946 800.13 101.19 800.13 103.211ZM803.07 109.174C804.003 109.174 804.73 108.689 805.25 107.719C805.77 106.735 806.03 105.232 806.03 103.211C806.03 101.496 805.863 100.167 805.53 99.2226L801.09 108.137C801.57 108.829 802.23 109.174 803.07 109.174Z" fill="url(#paint15_linear_175_1868)"/>
<path d="M803.07 118.964C804.497 118.964 805.577 119.569 806.31 120.779C807.057 121.976 807.43 123.717 807.43 126.004C807.43 128.291 807.057 130.039 806.31 131.249C805.577 132.459 804.497 133.064 803.07 133.064C801.657 133.064 800.577 132.459 799.83 131.249C799.084 130.039 798.71 128.291 798.71 126.004C798.71 123.731 799.084 121.989 799.83 120.779C800.577 119.569 801.657 118.964 803.07 118.964ZM800.13 126.004C800.13 127.626 800.277 128.896 800.57 129.813L805.01 120.978C804.543 120.353 803.897 120.041 803.07 120.041C802.15 120.041 801.43 120.533 800.91 121.517C800.39 122.487 800.13 123.983 800.13 126.004ZM803.07 131.967C804.003 131.967 804.73 131.482 805.25 130.511C805.77 129.528 806.03 128.025 806.03 126.004C806.03 124.289 805.863 122.959 805.53 122.015L801.09 130.93C801.57 131.622 802.23 131.967 803.07 131.967Z" fill="url(#paint16_linear_175_1868)"/>
<path d="M804.27 154.601H807.21V155.658H799.59V154.601H802.99V143.392L799.75 145.327L799.19 144.429L803.19 141.956H804.27V154.601Z" fill="url(#paint17_linear_175_1868)"/>
<path d="M803.07 164.55C804.497 164.55 805.577 165.155 806.31 166.365C807.057 167.561 807.43 169.303 807.43 171.59C807.43 173.877 807.057 175.625 806.31 176.835C805.577 178.045 804.497 178.65 803.07 178.65C801.657 178.65 800.577 178.045 799.83 176.835C799.084 175.625 798.71 173.877 798.71 171.59C798.71 169.316 799.084 167.574 799.83 166.365C800.577 165.155 801.657 164.55 803.07 164.55ZM800.13 171.59C800.13 173.212 800.277 174.482 800.57 175.399L805.01 166.564C804.543 165.939 803.897 165.627 803.07 165.627C802.15 165.627 801.43 166.119 800.91 167.102C800.39 168.073 800.13 169.569 800.13 171.59ZM803.07 177.553C804.003 177.553 804.73 177.068 805.25 176.097C805.77 175.113 806.03 173.611 806.03 171.59C806.03 169.875 805.863 168.545 805.53 167.601L801.09 176.516C801.57 177.207 802.23 177.553 803.07 177.553Z" fill="url(#paint18_linear_175_1868)"/>
<path d="M804.27 200.186H807.21V201.243H799.59V200.186H802.99V188.978L799.75 190.912L799.19 190.015L803.19 187.542H804.27V200.186Z" fill="url(#paint19_linear_175_1868)"/>
<path d="M803.07 210.135C804.497 210.135 805.577 210.74 806.31 211.95C807.057 213.147 807.43 214.888 807.43 217.175C807.43 219.462 807.057 221.211 806.31 222.421C805.577 223.63 804.497 224.235 803.07 224.235C801.657 224.235 800.577 223.63 799.83 222.421C799.084 221.211 798.71 219.462 798.71 217.175C798.71 214.902 799.084 213.16 799.83 211.95C800.577 210.74 801.657 210.135 803.07 210.135ZM800.13 217.175C800.13 218.797 800.277 220.067 800.57 220.985L805.01 212.15C804.543 211.525 803.897 211.212 803.07 211.212C802.15 211.212 801.43 211.704 800.91 212.688C800.39 213.659 800.13 215.154 800.13 217.175ZM803.07 223.139C804.003 223.139 804.73 222.653 805.25 221.683C805.77 220.699 806.03 219.196 806.03 217.175C806.03 215.46 805.863 214.131 805.53 213.187L801.09 222.101C801.57 222.793 802.23 223.139 803.07 223.139Z" fill="url(#paint20_linear_175_1868)"/>
<path d="M803.07 232.928C804.497 232.928 805.577 233.533 806.31 234.743C807.057 235.94 807.43 237.681 807.43 239.968C807.43 242.255 807.057 244.003 806.31 245.213C805.577 246.423 804.497 247.028 803.07 247.028C801.657 247.028 800.577 246.423 799.83 245.213C799.084 244.003 798.71 242.255 798.71 239.968C798.71 237.695 799.084 235.953 799.83 234.743C800.577 233.533 801.657 232.928 803.07 232.928ZM800.13 239.968C800.13 241.59 800.277 242.86 800.57 243.777L805.01 234.942C804.543 234.317 803.897 234.005 803.07 234.005C802.15 234.005 801.43 234.497 800.91 235.481C800.39 236.451 800.13 237.947 800.13 239.968ZM803.07 245.931C804.003 245.931 804.73 245.446 805.25 244.475C805.77 243.492 806.03 241.989 806.03 239.968C806.03 238.253 805.863 236.923 805.53 235.979L801.09 244.894C801.57 245.586 802.23 245.931 803.07 245.931Z" fill="url(#paint21_linear_175_1868)"/>
<path d="M804.27 268.565H807.21V269.622H799.59V268.565H802.99V257.356L799.75 259.291L799.19 258.393L803.19 255.92H804.27V268.565Z" fill="url(#paint22_linear_175_1868)"/>
<path d="M803.07 278.514C804.497 278.514 805.577 279.119 806.31 280.329C807.057 281.525 807.43 283.267 807.43 285.554C807.43 287.841 807.057 289.589 806.31 290.799C805.577 292.009 804.497 292.614 803.07 292.614C801.657 292.614 800.577 292.009 799.83 290.799C799.084 289.589 798.71 287.841 798.71 285.554C798.71 283.28 799.084 281.538 799.83 280.329C800.577 279.119 801.657 278.514 803.07 278.514ZM800.13 285.554C800.13 287.176 800.277 288.446 800.57 289.363L805.01 280.528C804.543 279.903 803.897 279.591 803.07 279.591C802.15 279.591 801.43 280.083 800.91 281.066C800.39 282.037 800.13 283.533 800.13 285.554ZM803.07 291.517C804.003 291.517 804.73 291.032 805.25 290.061C805.77 289.077 806.03 287.575 806.03 285.554C806.03 283.839 805.863 282.509 805.53 281.565L801.09 290.48C801.57 291.171 802.23 291.517 803.07 291.517Z" fill="url(#paint23_linear_175_1868)"/>
<path d="M804.27 314.15H807.21V315.207H799.59V314.15H802.99V302.942L799.75 304.876L799.19 303.979L803.19 301.506H804.27V314.15Z" fill="url(#paint24_linear_175_1868)"/>
<path d="M804.27 336.943H807.21V338H799.59V336.943H802.99V325.735L799.75 327.669L799.19 326.772L803.19 324.299H804.27V336.943Z" fill="url(#paint25_linear_175_1868)"/>
<path d="M747.36 73.3784C748.786 73.3784 749.866 73.9834 750.599 75.1933C751.346 76.3899 751.719 78.1317 751.719 80.4185C751.719 82.7054 751.346 84.4538 750.599 85.6637C749.866 86.8736 748.786 87.4786 747.36 87.4786C745.946 87.4786 744.867 86.8736 744.12 85.6637C743.373 84.4538 743 82.7054 743 80.4185C743 78.145 743.373 76.4032 744.12 75.1933C744.867 73.9834 745.946 73.3784 747.36 73.3784ZM744.42 80.4185C744.42 82.0406 744.567 83.3104 744.86 84.2278L749.3 75.3927C748.833 74.7678 748.186 74.4554 747.36 74.4554C746.44 74.4554 745.72 74.9473 745.2 75.9312C744.68 76.9018 744.42 78.3976 744.42 80.4185ZM747.36 86.3817C748.293 86.3817 749.02 85.8964 749.54 84.9258C750.06 83.9419 750.319 82.4395 750.319 80.4185C750.319 78.7034 750.153 77.3738 749.82 76.4298L745.38 85.3446C745.86 86.036 746.52 86.3817 747.36 86.3817Z" fill="url(#paint26_linear_175_1868)"/>
<path d="M747.36 96.1712C748.786 96.1712 749.866 96.7762 750.599 97.9861C751.346 99.1827 751.719 100.924 751.719 103.211C751.719 105.498 751.346 107.247 750.599 108.457C749.866 109.666 748.786 110.271 747.36 110.271C745.946 110.271 744.867 109.666 744.12 108.457C743.373 107.247 743 105.498 743 103.211C743 100.938 743.373 99.196 744.12 97.9861C744.867 96.7762 745.946 96.1712 747.36 96.1712ZM744.42 103.211C744.42 104.833 744.567 106.103 744.86 107.021L749.3 98.1855C748.833 97.5606 748.186 97.2482 747.36 97.2482C746.44 97.2482 745.72 97.7401 745.2 98.724C744.68 99.6946 744.42 101.19 744.42 103.211ZM747.36 109.174C748.293 109.174 749.02 108.689 749.54 107.719C750.06 106.735 750.319 105.232 750.319 103.211C750.319 101.496 750.153 100.167 749.82 99.2226L745.38 108.137C745.86 108.829 746.52 109.174 747.36 109.174Z" fill="url(#paint27_linear_175_1868)"/>
<path d="M748.56 131.808H751.499V132.865H743.88V131.808H747.28V120.599L744.04 122.534L743.48 121.636L747.48 119.163H748.56V131.808Z" fill="url(#paint28_linear_175_1868)"/>
<path d="M747.36 141.757C748.786 141.757 749.866 142.362 750.599 143.572C751.346 144.768 751.719 146.51 751.719 148.797C751.719 151.084 751.346 152.832 750.599 154.042C749.866 155.252 748.786 155.857 747.36 155.857C745.946 155.857 744.867 155.252 744.12 154.042C743.373 152.832 743 151.084 743 148.797C743 146.523 743.373 144.782 744.12 143.572C744.867 142.362 745.946 141.757 747.36 141.757ZM744.42 148.797C744.42 150.419 744.567 151.689 744.86 152.606L749.3 143.771C748.833 143.146 748.186 142.834 747.36 142.834C746.44 142.834 745.72 143.326 745.2 144.31C744.68 145.28 744.42 146.776 744.42 148.797ZM747.36 154.76C748.293 154.76 749.02 154.275 749.54 153.304C750.06 152.32 750.319 150.818 750.319 148.797C750.319 147.082 750.153 145.752 749.82 144.808L745.38 153.723C745.86 154.414 746.52 154.76 747.36 154.76Z" fill="url(#paint29_linear_175_1868)"/>
<path d="M748.56 177.393H751.499V178.45H743.88V177.393H747.28V166.185L744.04 168.12L743.48 167.222L747.48 164.749H748.56V177.393Z" fill="url(#paint30_linear_175_1868)"/>
<path d="M748.56 200.186H751.499V201.243H743.88V200.186H747.28V188.978L744.04 190.912L743.48 190.015L747.48 187.542H748.56V200.186Z" fill="url(#paint31_linear_175_1868)"/>
<path d="M785.7 40.6365H788.64V41.6936H781.02V40.6365H784.42V29.4282L781.18 31.3627L780.62 30.4653L784.62 27.9922H785.7V40.6365Z" fill="url(#paint32_linear_175_1868)"/>
<path d="M784.5 50.5856C785.927 50.5856 787.006 51.1906 787.74 52.4005C788.486 53.5971 788.86 55.3389 788.86 57.6257C788.86 59.9126 788.486 61.661 787.74 62.8709C787.006 64.0808 785.927 64.6858 784.5 64.6858C783.087 64.6858 782.007 64.0808 781.26 62.8709C780.514 61.661 780.14 59.9126 780.14 57.6257C780.14 55.3522 780.514 53.6104 781.26 52.4005C782.007 51.1906 783.087 50.5856 784.5 50.5856ZM781.56 57.6257C781.56 59.2478 781.707 60.5176 782 61.435L786.44 52.5999C785.973 51.975 785.327 51.6626 784.5 51.6626C783.58 51.6626 782.86 52.1545 782.34 53.1384C781.82 54.109 781.56 55.6048 781.56 57.6257ZM784.5 63.5889C785.433 63.5889 786.16 63.1036 786.68 62.133C787.2 61.1491 787.46 59.6467 787.46 57.6257C787.46 55.9106 787.293 54.581 786.96 53.637L782.52 62.5518C783 63.2432 783.66 63.5889 784.5 63.5889Z" fill="url(#paint33_linear_175_1868)"/>
<path d="M785.7 86.2221H788.64V87.2792H781.02V86.2221H784.42V75.0138L781.18 76.9483L780.62 76.0509L784.62 73.5778H785.7V86.2221Z" fill="url(#paint34_linear_175_1868)"/>
<path d="M785.7 109.015H788.64V110.072H781.02V109.015H784.42V97.8066L781.18 99.7411L780.62 98.8437L784.62 96.3706H785.7V109.015Z" fill="url(#paint35_linear_175_1868)"/>
<path d="M784.5 118.964C785.927 118.964 787.006 119.569 787.74 120.779C788.486 121.976 788.86 123.717 788.86 126.004C788.86 128.291 788.486 130.039 787.74 131.249C787.006 132.459 785.927 133.064 784.5 133.064C783.087 133.064 782.007 132.459 781.26 131.249C780.514 130.039 780.14 128.291 780.14 126.004C780.14 123.731 780.514 121.989 781.26 120.779C782.007 119.569 783.087 118.964 784.5 118.964ZM781.56 126.004C781.56 127.626 781.707 128.896 782 129.813L786.44 120.978C785.973 120.353 785.327 120.041 784.5 120.041C783.58 120.041 782.86 120.533 782.34 121.517C781.82 122.487 781.56 123.983 781.56 126.004ZM784.5 131.967C785.433 131.967 786.16 131.482 786.68 130.511C787.2 129.528 787.46 128.025 787.46 126.004C787.46 124.289 787.293 122.959 786.96 122.015L782.52 130.93C783 131.622 783.66 131.967 784.5 131.967Z" fill="url(#paint36_linear_175_1868)"/>
<path d="M785.7 154.601H788.64V155.658H781.02V154.601H784.42V143.392L781.18 145.327L780.62 144.429L784.62 141.956H785.7V154.601Z" fill="url(#paint37_linear_175_1868)"/>
<path d="M785.7 177.393H788.64V178.45H781.02V177.393H784.42V166.185L781.18 168.12L780.62 167.222L784.62 164.749H785.7V177.393Z" fill="url(#paint38_linear_175_1868)"/>
<path d="M784.5 187.342C785.927 187.342 787.006 187.947 787.74 189.157C788.486 190.354 788.86 192.096 788.86 194.383C788.86 196.669 788.486 198.418 787.74 199.628C787.006 200.838 785.927 201.443 784.5 201.443C783.087 201.443 782.007 200.838 781.26 199.628C780.514 198.418 780.14 196.669 780.14 194.383C780.14 192.109 780.514 190.367 781.26 189.157C782.007 187.947 783.087 187.342 784.5 187.342ZM781.56 194.383C781.56 196.005 781.707 197.274 782 198.192L786.44 189.357C785.973 188.732 785.327 188.419 784.5 188.419C783.58 188.419 782.86 188.911 782.34 189.895C781.82 190.866 781.56 192.362 781.56 194.383ZM784.5 200.346C785.433 200.346 786.16 199.86 786.68 198.89C787.2 197.906 787.46 196.404 787.46 194.383C787.46 192.667 787.293 191.338 786.96 190.394L782.52 199.309C783 200 783.66 200.346 784.5 200.346Z" fill="url(#paint39_linear_175_1868)"/>
<path d="M785.7 222.979H788.64V224.036H781.02V222.979H784.42V211.771L781.18 213.705L780.62 212.808L784.62 210.335H785.7V222.979Z" fill="url(#paint40_linear_175_1868)"/>
<path d="M784.5 232.928C785.927 232.928 787.006 233.533 787.74 234.743C788.486 235.94 788.86 237.681 788.86 239.968C788.86 242.255 788.486 244.003 787.74 245.213C787.006 246.423 785.927 247.028 784.5 247.028C783.087 247.028 782.007 246.423 781.26 245.213C780.514 244.003 780.14 242.255 780.14 239.968C780.14 237.695 780.514 235.953 781.26 234.743C782.007 233.533 783.087 232.928 784.5 232.928ZM781.56 239.968C781.56 241.59 781.707 242.86 782 243.777L786.44 234.942C785.973 234.317 785.327 234.005 784.5 234.005C783.58 234.005 782.86 234.497 782.34 235.481C781.82 236.451 781.56 237.947 781.56 239.968ZM784.5 245.931C785.433 245.931 786.16 245.446 786.68 244.475C787.2 243.492 787.46 241.989 787.46 239.968C787.46 238.253 787.293 236.923 786.96 235.979L782.52 244.894C783 245.586 783.66 245.931 784.5 245.931Z" fill="url(#paint41_linear_175_1868)"/>
<path d="M821.64 27.7928C823.067 27.7928 824.147 28.3978 824.88 29.6077C825.627 30.8043 826 32.5461 826 34.8329C826 37.1198 825.627 38.8682 824.88 40.0781C824.147 41.288 823.067 41.893 821.64 41.893C820.227 41.893 819.147 41.288 818.401 40.0781C817.654 38.8682 817.281 37.1198 817.281 34.8329C817.281 32.5593 817.654 30.8176 818.401 29.6077C819.147 28.3978 820.227 27.7928 821.64 27.7928ZM818.7 34.8329C818.7 36.455 818.847 37.7248 819.14 38.6422L823.58 29.8071C823.114 29.1822 822.467 28.8698 821.64 28.8698C820.72 28.8698 820 29.3617 819.48 30.3456C818.96 31.3162 818.7 32.812 818.7 34.8329ZM821.64 40.7961C822.574 40.7961 823.3 40.3108 823.82 39.3402C824.34 38.3563 824.6 36.8539 824.6 34.8329C824.6 33.1178 824.433 31.7882 824.1 30.8442L819.66 39.759C820.14 40.4504 820.8 40.7961 821.64 40.7961Z" fill="url(#paint42_linear_175_1868)"/>
<path d="M822.84 63.4293H825.78V64.4864H818.161V63.4293H821.56V52.221L818.321 54.1555L817.761 53.2581L821.76 50.785H822.84V63.4293Z" fill="url(#paint43_linear_175_1868)"/>
<path d="M822.84 86.2221H825.78V87.2792H818.161V86.2221H821.56V75.0138L818.321 76.9483L817.761 76.0509L821.76 73.5778H822.84V86.2221Z" fill="url(#paint44_linear_175_1868)"/>
<path d="M821.64 96.1712C823.067 96.1712 824.147 96.7762 824.88 97.9861C825.627 99.1827 826 100.924 826 103.211C826 105.498 825.627 107.247 824.88 108.457C824.147 109.666 823.067 110.271 821.64 110.271C820.227 110.271 819.147 109.666 818.401 108.457C817.654 107.247 817.281 105.498 817.281 103.211C817.281 100.938 817.654 99.196 818.401 97.9861C819.147 96.7762 820.227 96.1712 821.64 96.1712ZM818.7 103.211C818.7 104.833 818.847 106.103 819.14 107.021L823.58 98.1855C823.114 97.5606 822.467 97.2482 821.64 97.2482C820.72 97.2482 820 97.7401 819.48 98.724C818.96 99.6946 818.7 101.19 818.7 103.211ZM821.64 109.174C822.574 109.174 823.3 108.689 823.82 107.719C824.34 106.735 824.6 105.232 824.6 103.211C824.6 101.496 824.433 100.167 824.1 99.2226L819.66 108.137C820.14 108.829 820.8 109.174 821.64 109.174Z" fill="url(#paint45_linear_175_1868)"/>
<path d="M821.64 118.964C823.067 118.964 824.147 119.569 824.88 120.779C825.627 121.976 826 123.717 826 126.004C826 128.291 825.627 130.039 824.88 131.249C824.147 132.459 823.067 133.064 821.64 133.064C820.227 133.064 819.147 132.459 818.401 131.249C817.654 130.039 817.281 128.291 817.281 126.004C817.281 123.731 817.654 121.989 818.401 120.779C819.147 119.569 820.227 118.964 821.64 118.964ZM818.7 126.004C818.7 127.626 818.847 128.896 819.14 129.813L823.58 120.978C823.114 120.353 822.467 120.041 821.64 120.041C820.72 120.041 820 120.533 819.48 121.517C818.96 122.487 818.7 123.983 818.7 126.004ZM821.64 131.967C822.574 131.967 823.3 131.482 823.82 130.511C824.34 129.528 824.6 128.025 824.6 126.004C824.6 124.289 824.433 122.959 824.1 122.015L819.66 130.93C820.14 131.622 820.8 131.967 821.64 131.967Z" fill="url(#paint46_linear_175_1868)"/>
</g>
<defs>
<filter id="filter0_f_175_1868" x="-712.19" y="-681.19" width="2141.38" height="1500.38" filterUnits="userSpaceOnUse" color-interpolation-filters="sRGB">
<feFlood flood-opacity="0" result="BackgroundImageFix"/>
<feBlend mode="normal" in="SourceGraphic" in2="BackgroundImageFix" result="shape"/>
<feGaussianBlur stdDeviation="200.095" result="effect1_foregroundBlur_175_1868"/>
</filter>
<linearGradient id="paint0_linear_175_1868" x1="784.5" y1="5" x2="784.5" y2="303.818" gradientUnits="userSpaceOnUse">
<stop stop-color="#F7DD43"/>
<stop offset="1" stop-color="#F7DD43" stop-opacity="0"/>
</linearGradient>
<linearGradient id="paint1_linear_175_1868" x1="784.5" y1="5" x2="784.5" y2="303.818" gradientUnits="userSpaceOnUse">
<stop stop-color="#F7DD43"/>
<stop offset="1" stop-color="#F7DD43" stop-opacity="0"/>
</linearGradient>
<linearGradient id="paint2_linear_175_1868" x1="784.5" y1="5" x2="784.5" y2="303.818" gradientUnits="userSpaceOnUse">
<stop stop-color="#F7DD43"/>
<stop offset="1" stop-color="#F7DD43" stop-opacity="0"/>
</linearGradient>
<linearGradient id="paint3_linear_175_1868" x1="784.5" y1="5" x2="784.5" y2="303.818" gradientUnits="userSpaceOnUse">
<stop stop-color="#F7DD43"/>
<stop offset="1" stop-color="#F7DD43" stop-opacity="0"/>
</linearGradient>
<linearGradient id="paint4_linear_175_1868" x1="784.5" y1="5" x2="784.5" y2="303.818" gradientUnits="userSpaceOnUse">
<stop stop-color="#F7DD43"/>
<stop offset="1" stop-color="#F7DD43" stop-opacity="0"/>
</linearGradient>
<linearGradient id="paint5_linear_175_1868" x1="784.5" y1="5" x2="784.5" y2="303.818" gradientUnits="userSpaceOnUse">
<stop stop-color="#F7DD43"/>
<stop offset="1" stop-color="#F7DD43" stop-opacity="0"/>
</linearGradient>
<linearGradient id="paint6_linear_175_1868" x1="784.5" y1="5" x2="784.5" y2="303.818" gradientUnits="userSpaceOnUse">
<stop stop-color="#F7DD43"/>
<stop offset="1" stop-color="#F7DD43" stop-opacity="0"/>
</linearGradient>
<linearGradient id="paint7_linear_175_1868" x1="784.5" y1="5" x2="784.5" y2="303.818" gradientUnits="userSpaceOnUse">
<stop stop-color="#F7DD43"/>
<stop offset="1" stop-color="#F7DD43" stop-opacity="0"/>
</linearGradient>
<linearGradient id="paint8_linear_175_1868" x1="784.5" y1="5" x2="784.5" y2="303.818" gradientUnits="userSpaceOnUse">
<stop stop-color="#F7DD43"/>
<stop offset="1" stop-color="#F7DD43" stop-opacity="0"/>
</linearGradient>
<linearGradient id="paint9_linear_175_1868" x1="784.5" y1="5" x2="784.5" y2="303.818" gradientUnits="userSpaceOnUse">
<stop stop-color="#F7DD43"/>
<stop offset="1" stop-color="#F7DD43" stop-opacity="0"/>
</linearGradient>
<linearGradient id="paint10_linear_175_1868" x1="784.5" y1="5" x2="784.5" y2="303.818" gradientUnits="userSpaceOnUse">
<stop stop-color="#F7DD43"/>
<stop offset="1" stop-color="#F7DD43" stop-opacity="0"/>
</linearGradient>
<linearGradient id="paint11_linear_175_1868" x1="784.5" y1="5" x2="784.5" y2="303.818" gradientUnits="userSpaceOnUse">
<stop stop-color="#F7DD43"/>
<stop offset="1" stop-color="#F7DD43" stop-opacity="0"/>
</linearGradient>
<linearGradient id="paint12_linear_175_1868" x1="784.5" y1="5" x2="784.5" y2="303.818" gradientUnits="userSpaceOnUse">
<stop stop-color="#F7DD43"/>
<stop offset="1" stop-color="#F7DD43" stop-opacity="0"/>
</linearGradient>
<linearGradient id="paint13_linear_175_1868" x1="784.5" y1="5" x2="784.5" y2="303.818" gradientUnits="userSpaceOnUse">
<stop stop-color="#F7DD43"/>
<stop offset="1" stop-color="#F7DD43" stop-opacity="0"/>
</linearGradient>
<linearGradient id="paint14_linear_175_1868" x1="784.5" y1="5" x2="784.5" y2="303.818" gradientUnits="userSpaceOnUse">
<stop stop-color="#F7DD43"/>
<stop offset="1" stop-color="#F7DD43" stop-opacity="0"/>
</linearGradient>
<linearGradient id="paint15_linear_175_1868" x1="784.5" y1="5" x2="784.5" y2="303.818" gradientUnits="userSpaceOnUse">
<stop stop-color="#F7DD43"/>
<stop offset="1" stop-color="#F7DD43" stop-opacity="0"/>
</linearGradient>
<linearGradient id="paint16_linear_175_1868" x1="784.5" y1="5" x2="784.5" y2="303.818" gradientUnits="userSpaceOnUse">
<stop stop-color="#F7DD43"/>
<stop offset="1" stop-color="#F7DD43" stop-opacity="0"/>
</linearGradient>
<linearGradient id="paint17_linear_175_1868" x1="784.5" y1="5" x2="784.5" y2="303.818" gradientUnits="userSpaceOnUse">
<stop stop-color="#F7DD43"/>
<stop offset="1" stop-color="#F7DD43" stop-opacity="0"/>
</linearGradient>
<linearGradient id="paint18_linear_175_1868" x1="784.5" y1="5" x2="784.5" y2="303.818" gradientUnits="userSpaceOnUse">
<stop stop-color="#F7DD43"/>
<stop offset="1" stop-color="#F7DD43" stop-opacity="0"/>
</linearGradient>
<linearGradient id="paint19_linear_175_1868" x1="784.5" y1="5" x2="784.5" y2="303.818" gradientUnits="userSpaceOnUse">
<stop stop-color="#F7DD43"/>
<stop offset="1" stop-color="#F7DD43" stop-opacity="0"/>
</linearGradient>
<linearGradient id="paint20_linear_175_1868" x1="784.5" y1="5" x2="784.5" y2="303.818" gradientUnits="userSpaceOnUse">
<stop stop-color="#F7DD43"/>
<stop offset="1" stop-color="#F7DD43" stop-opacity="0"/>
</linearGradient>
<linearGradient id="paint21_linear_175_1868" x1="784.5" y1="5" x2="784.5" y2="303.818" gradientUnits="userSpaceOnUse">
<stop stop-color="#F7DD43"/>
<stop offset="1" stop-color="#F7DD43" stop-opacity="0"/>
</linearGradient>
<linearGradient id="paint22_linear_175_1868" x1="784.5" y1="5" x2="784.5" y2="303.818" gradientUnits="userSpaceOnUse">
<stop stop-color="#F7DD43"/>
<stop offset="1" stop-color="#F7DD43" stop-opacity="0"/>
</linearGradient>
<linearGradient id="paint23_linear_175_1868" x1="784.5" y1="5" x2="784.5" y2="303.818" gradientUnits="userSpaceOnUse">
<stop stop-color="#F7DD43"/>
<stop offset="1" stop-color="#F7DD43" stop-opacity="0"/>
</linearGradient>
<linearGradient id="paint24_linear_175_1868" x1="784.5" y1="5" x2="784.5" y2="303.818" gradientUnits="userSpaceOnUse">
<stop stop-color="#F7DD43"/>
<stop offset="1" stop-color="#F7DD43" stop-opacity="0"/>
</linearGradient>
<linearGradient id="paint25_linear_175_1868" x1="784.5" y1="5" x2="784.5" y2="303.818" gradientUnits="userSpaceOnUse">
<stop stop-color="#F7DD43"/>
<stop offset="1" stop-color="#F7DD43" stop-opacity="0"/>
</linearGradient>
<linearGradient id="paint26_linear_175_1868" x1="784.5" y1="5" x2="784.5" y2="303.818" gradientUnits="userSpaceOnUse">
<stop stop-color="#F7DD43"/>
<stop offset="1" stop-color="#F7DD43" stop-opacity="0"/>
</linearGradient>
<linearGradient id="paint27_linear_175_1868" x1="784.5" y1="5" x2="784.5" y2="303.818" gradientUnits="userSpaceOnUse">
<stop stop-color="#F7DD43"/>
<stop offset="1" stop-color="#F7DD43" stop-opacity="0"/>
</linearGradient>
<linearGradient id="paint28_linear_175_1868" x1="784.5" y1="5" x2="784.5" y2="303.818" gradientUnits="userSpaceOnUse">
<stop stop-color="#F7DD43"/>
<stop offset="1" stop-color="#F7DD43" stop-opacity="0"/>
</linearGradient>
<linearGradient id="paint29_linear_175_1868" x1="784.5" y1="5" x2="784.5" y2="303.818" gradientUnits="userSpaceOnUse">
<stop stop-color="#F7DD43"/>
<stop offset="1" stop-color="#F7DD43" stop-opacity="0"/>
</linearGradient>
<linearGradient id="paint30_linear_175_1868" x1="784.5" y1="5" x2="784.5" y2="303.818" gradientUnits="userSpaceOnUse">
<stop stop-color="#F7DD43"/>
<stop offset="1" stop-color="#F7DD43" stop-opacity="0"/>
</linearGradient>
<linearGradient id="paint31_linear_175_1868" x1="784.5" y1="5" x2="784.5" y2="303.818" gradientUnits="userSpaceOnUse">
<stop stop-color="#F7DD43"/>
<stop offset="1" stop-color="#F7DD43" stop-opacity="0"/>
</linearGradient>
<linearGradient id="paint32_linear_175_1868" x1="784.5" y1="5" x2="784.5" y2="303.818" gradientUnits="userSpaceOnUse">
<stop stop-color="#F7DD43"/>
<stop offset="1" stop-color="#F7DD43" stop-opacity="0"/>
</linearGradient>
<linearGradient id="paint33_linear_175_1868" x1="784.5" y1="5" x2="784.5" y2="303.818" gradientUnits="userSpaceOnUse">
<stop stop-color="#F7DD43"/>
<stop offset="1" stop-color="#F7DD43" stop-opacity="0"/>
</linearGradient>
<linearGradient id="paint34_linear_175_1868" x1="784.5" y1="5" x2="784.5" y2="303.818" gradientUnits="userSpaceOnUse">
<stop stop-color="#F7DD43"/>
<stop offset="1" stop-color="#F7DD43" stop-opacity="0"/>
</linearGradient>
<linearGradient id="paint35_linear_175_1868" x1="784.5" y1="5" x2="784.5" y2="303.818" gradientUnits="userSpaceOnUse">
<stop stop-color="#F7DD43"/>
<stop offset="1" stop-color="#F7DD43" stop-opacity="0"/>
</linearGradient>
<linearGradient id="paint36_linear_175_1868" x1="784.5" y1="5" x2="784.5" y2="303.818" gradientUnits="userSpaceOnUse">
<stop stop-color="#F7DD43"/>
<stop offset="1" stop-color="#F7DD43" stop-opacity="0"/>
</linearGradient>
<linearGradient id="paint37_linear_175_1868" x1="784.5" y1="5" x2="784.5" y2="303.818" gradientUnits="userSpaceOnUse">
<stop stop-color="#F7DD43"/>
<stop offset="1" stop-color="#F7DD43" stop-opacity="0"/>
</linearGradient>
<linearGradient id="paint38_linear_175_1868" x1="784.5" y1="5" x2="784.5" y2="303.818" gradientUnits="userSpaceOnUse">
<stop stop-color="#F7DD43"/>
<stop offset="1" stop-color="#F7DD43" stop-opacity="0"/>
</linearGradient>
<linearGradient id="paint39_linear_175_1868" x1="784.5" y1="5" x2="784.5" y2="303.818" gradientUnits="userSpaceOnUse">
<stop stop-color="#F7DD43"/>
<stop offset="1" stop-color="#F7DD43" stop-opacity="0"/>
</linearGradient>
<linearGradient id="paint40_linear_175_1868" x1="784.5" y1="5" x2="784.5" y2="303.818" gradientUnits="userSpaceOnUse">
<stop stop-color="#F7DD43"/>
<stop offset="1" stop-color="#F7DD43" stop-opacity="0"/>
</linearGradient>
<linearGradient id="paint41_linear_175_1868" x1="784.5" y1="5" x2="784.5" y2="303.818" gradientUnits="userSpaceOnUse">
<stop stop-color="#F7DD43"/>
<stop offset="1" stop-color="#F7DD43" stop-opacity="0"/>
</linearGradient>
<linearGradient id="paint42_linear_175_1868" x1="784.5" y1="5" x2="784.5" y2="303.818" gradientUnits="userSpaceOnUse">
<stop stop-color="#F7DD43"/>
<stop offset="1" stop-color="#F7DD43" stop-opacity="0"/>
</linearGradient>
<linearGradient id="paint43_linear_175_1868" x1="784.5" y1="5" x2="784.5" y2="303.818" gradientUnits="userSpaceOnUse">
<stop stop-color="#F7DD43"/>
<stop offset="1" stop-color="#F7DD43" stop-opacity="0"/>
</linearGradient>
<linearGradient id="paint44_linear_175_1868" x1="784.5" y1="5" x2="784.5" y2="303.818" gradientUnits="userSpaceOnUse">
<stop stop-color="#F7DD43"/>
<stop offset="1" stop-color="#F7DD43" stop-opacity="0"/>
</linearGradient>
<linearGradient id="paint45_linear_175_1868" x1="784.5" y1="5" x2="784.5" y2="303.818" gradientUnits="userSpaceOnUse">
<stop stop-color="#F7DD43"/>
<stop offset="1" stop-color="#F7DD43" stop-opacity="0"/>
</linearGradient>
<linearGradient id="paint46_linear_175_1868" x1="784.5" y1="5" x2="784.5" y2="303.818" gradientUnits="userSpaceOnUse">
<stop stop-color="#F7DD43"/>
<stop offset="1" stop-color="#F7DD43" stop-opacity="0"/>
</linearGradient>
</defs>
</svg>
